<?xml version="1.0" encoding="utf-8"?>
<!-- Generator: Adobe Illustrator 19.2.0, SVG Export Plug-In . SVG Version: 6.00 Build 0)  -->
<svg version="1.1" id="ic_filetype_doc" xmlns="http://www.w3.org/2000/svg" xmlns:xlink="http://www.w3.org/1999/xlink" x="0px"
	 y="0px" viewBox="0 0 281 366" style="enable-background:new 0 0 281 366;" xml:space="preserve">
<style type="text/css">
	.st0{fill:#E9E9E0;}
	.st1{fill:#1565C0;}
	.st2{fill:#D9D7CA;}
	.st3{enable-background:new    ;}
	.st4{fill:#FFFFFF;}
</style>
<path id="Rounded_Rectangle_1" class="st0" d="M281,80v281c0,2.8-2.2,5-5,5H5c-2.8,0-5-2.2-5-5V5c0-2.8,2.2-5,5-5h196L281,80z"/>
<rect id="Rounded_Rectangle_1_copy" y="254" class="st1" width="281" height="112"/>
<path class="st2" d="M202,1v76h77L202,1z"/>
<g class="st3">
	<path class="st1" d="M140.4,140.1l-19.6,55.7h-19.7l-28.4-82.4h23.9l16.1,48.8l17.1-48.8H152l17.5,48.9l16.3-48.9h23.4l-29.1,82.4
		h-19.7L140.4,140.1z"/>
</g>
<g class="st3">
	<path class="st4" d="M108.8,308.9c0,5.1-0.7,9.6-2,13.4c-1.3,3.8-3.2,7-5.7,9.5s-5.6,4.4-9.2,5.6s-8,1.9-13,1.9H66.4
		c-0.7,0-1.4-0.2-2-0.7c-0.6-0.5-0.9-1.3-0.9-2.5v-52.6c0-1.2,0.3-2,0.9-2.5c0.6-0.5,1.3-0.7,2-0.7h13.3c5.1,0,9.4,0.7,12.9,2
		c3.5,1.3,6.5,3.2,8.9,5.7c2.4,2.5,4.2,5.5,5.4,9C108.2,300.5,108.8,304.5,108.8,308.9z M100.5,309.2c0-3.2-0.4-6.2-1.2-8.9
		c-0.8-2.7-2-5.1-3.7-7.1s-3.8-3.6-6.4-4.7c-2.6-1.1-5.9-1.7-10-1.7h-8v45.9h8.1c3.8,0,6.9-0.5,9.5-1.4c2.6-0.9,4.7-2.4,6.5-4.3
		c1.7-1.9,3-4.4,3.9-7.3C100.1,316.7,100.5,313.2,100.5,309.2z"/>
	<path class="st4" d="M170.2,309.1c0,4.8-0.6,9.1-1.7,12.9c-1.1,3.8-2.8,7.1-5,9.8c-2.2,2.7-5,4.8-8.4,6.2
		c-3.4,1.4-7.3,2.2-11.8,2.2c-4.4,0-8.3-0.7-11.5-2c-3.2-1.3-5.9-3.2-8-5.8c-2.1-2.5-3.7-5.6-4.7-9.4c-1-3.7-1.5-8-1.5-12.9
		c0-4.6,0.6-8.9,1.7-12.7c1.1-3.8,2.8-7,5.1-9.7c2.2-2.7,5.1-4.7,8.4-6.1c3.4-1.4,7.3-2.2,11.8-2.2c4.3,0,8.1,0.7,11.3,2
		c3.2,1.3,5.9,3.2,8,5.7s3.7,5.6,4.8,9.3C169.7,300.1,170.2,304.3,170.2,309.1z M161.9,309.6c0-3.3-0.3-6.4-0.9-9.3
		c-0.6-2.9-1.6-5.4-3-7.5c-1.4-2.1-3.2-3.8-5.5-4.9c-2.3-1.2-5.2-1.8-8.6-1.8c-3.4,0-6.2,0.6-8.6,1.9c-2.3,1.3-4.2,3-5.6,5.1
		c-1.4,2.1-2.5,4.6-3.1,7.4s-0.9,5.8-0.9,8.9c0,3.5,0.3,6.6,0.9,9.6c0.6,2.9,1.5,5.4,2.9,7.5c1.4,2.1,3.2,3.8,5.5,4.9
		c2.3,1.2,5.2,1.8,8.6,1.8c3.4,0,6.3-0.6,8.6-1.9c2.3-1.3,4.2-3,5.6-5.2c1.4-2.2,2.4-4.7,3-7.5C161.6,315.8,161.9,312.8,161.9,309.6
		z"/>
	<path class="st4" d="M222,330.9c0,0.5,0,0.9,0,1.3c0,0.4-0.1,0.7-0.2,1c-0.1,0.3-0.2,0.5-0.3,0.7c-0.1,0.2-0.3,0.5-0.6,0.8
		c-0.3,0.3-0.9,0.8-1.9,1.4c-1,0.6-2.2,1.2-3.6,1.8c-1.4,0.6-3.1,1.1-5,1.5c-1.9,0.4-3.9,0.6-6.1,0.6c-3.8,0-7.3-0.6-10.4-1.9
		c-3.1-1.3-5.7-3.2-7.9-5.6c-2.2-2.5-3.8-5.6-5-9.2s-1.8-7.9-1.8-12.6c0-4.9,0.6-9.2,1.9-13.1s3-7.1,5.3-9.7c2.3-2.7,5-4.7,8.2-6.1
		c3.2-1.4,6.7-2.1,10.5-2.1c1.7,0,3.4,0.2,5,0.5c1.6,0.3,3.1,0.7,4.5,1.2c1.4,0.5,2.6,1,3.6,1.7c1.1,0.6,1.8,1.2,2.2,1.6
		s0.7,0.7,0.8,0.9c0.1,0.2,0.2,0.5,0.3,0.8c0.1,0.3,0.1,0.6,0.2,1c0,0.4,0.1,0.9,0.1,1.4c0,0.6,0,1.1-0.1,1.5
		c-0.1,0.4-0.2,0.8-0.3,1.1c-0.1,0.3-0.3,0.5-0.4,0.6s-0.4,0.2-0.6,0.2c-0.4,0-1-0.3-1.8-0.9c-0.8-0.6-1.7-1.2-3-2
		c-1.2-0.7-2.7-1.4-4.4-2c-1.7-0.6-3.8-0.9-6.2-0.9c-2.6,0-5,0.5-7.2,1.6c-2.2,1-4,2.6-5.5,4.6c-1.5,2-2.7,4.5-3.5,7.4
		c-0.8,2.9-1.3,6.3-1.3,10c0,3.7,0.4,7,1.2,9.9c0.8,2.9,2,5.3,3.5,7.2s3.4,3.4,5.6,4.4c2.2,1,4.7,1.5,7.5,1.5c2.3,0,4.4-0.3,6.2-0.9
		c1.8-0.6,3.3-1.2,4.5-1.9c1.2-0.7,2.3-1.4,3-1.9c0.8-0.6,1.4-0.9,1.9-0.9c0.2,0,0.4,0,0.5,0.1s0.3,0.3,0.4,0.5
		c0.1,0.3,0.2,0.6,0.2,1.1C221.9,329.6,222,330.2,222,330.9z"/>
</g>
</svg>
