<?xml version="1.0" encoding="utf-8"?>
<!-- Generator: Adobe Illustrator 19.2.0, SVG Export Plug-In . SVG Version: 6.00 Build 0)  -->
<svg version="1.1" id="ic_filetype_link" xmlns="http://www.w3.org/2000/svg" xmlns:xlink="http://www.w3.org/1999/xlink" x="0px"
	 y="0px" viewBox="0 0 281 366" style="enable-background:new 0 0 281 366;" xml:space="preserve">
<style type="text/css">
	.st0{fill:#E9E9E0;}
	.st1{fill:#1D8277;}
	.st2{fill:#D9D7CA;}
	.st3{enable-background:new    ;}
	.st4{fill:#FFFFFF;}
</style>
<path id="Rounded_Rectangle_1" class="st0" d="M281,80v281c0,2.8-2.2,5-5,5H5c-2.8,0-5-2.2-5-5V5c0-2.8,2.2-5,5-5h196L281,80z"/>
<rect id="Rounded_Rectangle_1_copy" y="254" class="st1" width="281" height="112"/>
<path class="st2" d="M202,1v76h77L202,1z"/>
<path class="st1" d="M147.6,73c2.6,0.4,5.2,0.6,7.8,1.1c11.7,2.1,22.7,7.2,31.8,14.8c0.8,0.8,2,1.2,3.1,0.9
	c6.6-1.2,12.9,3.2,14.1,9.9c1.1,6.5-3.1,12.7-9.5,14c-5,0.9-9.2-0.6-12.2-4.6c-3-3.7-3.4-8.9-1.1-13c0.1-0.3,0.3-0.6,0.4-0.8
	c-26-21.4-64.4-17.7-85.9,8.3c-4.7,5.6-8.3,12.1-10.6,19c-5,14.4-4.4,28.7,1.4,42.9c-2.3,0.9-4.4,1.8-6.6,2.7
	c-0.3,0.1-0.6,0.2-1,0.3c-1.9-4.6-3.3-9.4-4.2-14.3c-0.4-2.5-0.7-5-1.1-7.5v-8.4c0.1-0.4,0.2-0.8,0.2-1.2c1-13.6,6.1-26.6,14.6-37.2
	c10.6-13.7,25.9-22.9,42.9-25.7c2.4-0.4,4.9-0.7,7.4-1L147.6,73L147.6,73z M139.4,212c-2.5-0.3-4.9-0.6-7.4-1
	c-11.9-2-23-7.1-32.2-14.8c-0.8-0.8-2.1-1.2-3.2-0.9c-6.6,1.1-12.9-3.4-14-10c-1.1-6.4,3.1-12.6,9.5-13.9c4.9-0.9,9.1,0.5,12.1,4.5
	c3,3.7,3.5,8.9,1.1,13.1c-0.1,0.2-0.3,0.5-0.4,0.7c0,0,0,0.1,0,0.1c26,21.4,64.5,17.7,85.9-8.4c4.7-5.7,8.3-12.1,10.6-19.1
	c5-14.3,4.4-28.6-1.4-42.7l7.5-3.1c1.9,4.6,3.4,9.4,4.2,14.4c0.4,2.5,0.7,5,1.1,7.5v8.4c-0.1,0.3-0.2,0.7-0.2,1
	c-0.5,3.1-0.8,6.3-1.4,9.4c-5.7,27.2-28.5,49.1-55.9,53.7c-2.5,0.4-5.1,0.7-7.6,1.1L139.4,212L139.4,212z M123.8,154.7h-23.4
	c-2.3-8-2.3-16.4,0-24.3h23.4C122.9,138.4,122.9,146.6,123.8,154.7z M163.2,154.7c0.9-8.1,0.9-16.2,0-24.3h23.4
	c2.2,7.9,2.2,16.4,0,24.3H163.2L163.2,154.7z M154.9,154.7h-22.9c-1.1-8.1-1.1-16.2,0-24.3h22.9C156,138.4,156,146.6,154.9,154.7
	L154.9,154.7z M162.2,122.1c-1.7-4.6-3.3-9.1-5.1-13.4c-1-2.2-2.4-4.2-3.9-6c-1.9-2.4-4.5-4.1-7.5-4.8c15.1,0.4,30.8,10.1,37.5,24.2
	L162.2,122.1L162.2,122.1z M161.9,162.9h21.2c-4.5,10.4-18.2,23.4-37.3,24.3c8-2.7,11-9.4,13.7-16.5
	C160.5,168.2,161.1,165.6,161.9,162.9z M141.4,97.8c-6.8,2.1-10,7.2-12.5,12.8c-1.6,3.7-2.7,7.5-4,11.5h-21
	C108.2,111.9,122,98.7,141.4,97.8z M103.8,162.9h21.2c0.9,2.9,1.6,5.9,2.7,8.6c1.2,2.9,2.6,5.7,4.2,8.5c2.2,3.7,4.2,5.1,9,7.2
	C123.9,186.5,109.4,175,103.8,162.9L103.8,162.9z M153.4,122.1h-19.6c-0.1-0.1-0.1-0.2-0.1-0.4c1-4.5,2.8-8.8,5.3-12.7
	c2.9-4.3,5.9-4.3,8.9,0C150.7,112.9,152.1,117.4,153.4,122.1L153.4,122.1z M133.6,162.9h19.8c-1.5,5.2-3,10.4-6.6,14.5
	c-2.2,2.4-4.4,2.4-6.6,0c-1-1.2-1.9-2.4-2.6-3.8C135.8,170.2,134.5,166.6,133.6,162.9L133.6,162.9z"/>
<g class="st3">
	<path class="st4" d="M92.8,335.8c0,0.6,0,1.1-0.1,1.5c-0.1,0.4-0.2,0.8-0.3,1c-0.1,0.3-0.3,0.5-0.5,0.6c-0.2,0.1-0.4,0.2-0.7,0.2
		H65.1c-0.7,0-1.4-0.2-2-0.7c-0.6-0.5-0.9-1.3-0.9-2.5v-54.6c0-0.2,0.1-0.5,0.2-0.6c0.1-0.2,0.3-0.3,0.6-0.4
		c0.3-0.1,0.7-0.2,1.2-0.3c0.5-0.1,1.1-0.1,1.9-0.1c0.8,0,1.4,0,1.9,0.1c0.5,0.1,0.9,0.2,1.2,0.3c0.3,0.1,0.5,0.3,0.6,0.4
		c0.1,0.2,0.2,0.4,0.2,0.6v51h21.1c0.3,0,0.5,0.1,0.7,0.2c0.2,0.1,0.4,0.3,0.5,0.6c0.1,0.3,0.2,0.6,0.3,1
		C92.7,334.7,92.8,335.2,92.8,335.8z"/>
	<path class="st4" d="M109.3,338.1c0,0.2-0.1,0.5-0.2,0.6c-0.1,0.2-0.3,0.3-0.6,0.4c-0.3,0.1-0.7,0.2-1.2,0.3
		c-0.5,0.1-1.1,0.1-1.9,0.1c-0.7,0-1.4,0-1.9-0.1c-0.5-0.1-0.9-0.2-1.2-0.3c-0.3-0.1-0.5-0.3-0.6-0.4c-0.1-0.2-0.2-0.4-0.2-0.6
		v-56.6c0-0.2,0.1-0.5,0.2-0.6c0.1-0.2,0.4-0.3,0.7-0.4c0.3-0.1,0.7-0.2,1.2-0.3c0.5-0.1,1.1-0.1,1.8-0.1c0.8,0,1.4,0,1.9,0.1
		c0.5,0.1,0.9,0.2,1.2,0.3c0.3,0.1,0.5,0.3,0.6,0.4c0.1,0.2,0.2,0.4,0.2,0.6V338.1z"/>
	<path class="st4" d="M169.5,336c0,0.6-0.1,1.1-0.3,1.5c-0.2,0.4-0.5,0.8-0.8,1s-0.7,0.5-1.1,0.6c-0.4,0.1-0.8,0.2-1.2,0.2h-2.6
		c-0.8,0-1.5-0.1-2.1-0.3c-0.6-0.2-1.2-0.5-1.7-0.9s-1.1-1-1.6-1.8c-0.5-0.8-1.1-1.7-1.7-2.9l-18-33.5c-0.9-1.7-1.9-3.5-2.8-5.4
		c-1-1.9-1.8-3.7-2.7-5.5h-0.1c0.1,2.2,0.1,4.4,0.1,6.7c0,2.3,0,4.5,0,6.8v35.6c0,0.2-0.1,0.4-0.2,0.6c-0.1,0.2-0.3,0.3-0.6,0.5
		c-0.3,0.1-0.7,0.2-1.2,0.3c-0.5,0.1-1.1,0.1-1.9,0.1c-0.8,0-1.4,0-1.9-0.1c-0.5-0.1-0.9-0.2-1.2-0.3c-0.3-0.1-0.5-0.3-0.6-0.5
		c-0.1-0.2-0.2-0.4-0.2-0.6v-54.4c0-1.2,0.3-2.1,1-2.6c0.7-0.5,1.4-0.8,2.3-0.8h3.9c0.9,0,1.7,0.1,2.3,0.2c0.6,0.2,1.2,0.4,1.6,0.8
		c0.5,0.3,1,0.8,1.4,1.5c0.5,0.6,0.9,1.4,1.4,2.3l13.8,25.9c0.9,1.6,1.7,3.1,2.5,4.6c0.8,1.5,1.6,3,2.3,4.4c0.7,1.5,1.5,2.9,2.2,4.3
		c0.7,1.4,1.4,2.8,2.1,4.3h0c-0.1-2.4-0.1-4.9-0.1-7.5c0-2.6,0-5.1,0-7.5v-32c0-0.2,0.1-0.4,0.2-0.6c0.1-0.2,0.3-0.3,0.6-0.5
		c0.3-0.1,0.7-0.2,1.2-0.3c0.5-0.1,1.1-0.1,1.9-0.1c0.7,0,1.3,0,1.8,0.1c0.5,0.1,0.9,0.2,1.2,0.3s0.5,0.3,0.6,0.5
		c0.1,0.2,0.2,0.4,0.2,0.6V336z"/>
	<path class="st4" d="M223.6,338c0,0.2-0.1,0.5-0.2,0.7c-0.1,0.2-0.3,0.4-0.6,0.5c-0.3,0.1-0.7,0.2-1.2,0.3c-0.5,0.1-1.2,0.1-2,0.1
		c-1.1,0-1.9,0-2.6-0.1c-0.7-0.1-1.2-0.3-1.5-0.5s-0.6-0.5-0.8-0.8L193,308.6v29.5c0,0.2-0.1,0.4-0.2,0.6c-0.1,0.2-0.3,0.3-0.6,0.5
		c-0.3,0.1-0.7,0.2-1.2,0.3c-0.5,0.1-1.1,0.1-1.9,0.1c-0.7,0-1.4,0-1.9-0.1c-0.5-0.1-0.9-0.2-1.2-0.3c-0.3-0.1-0.5-0.3-0.6-0.5
		c-0.1-0.2-0.2-0.4-0.2-0.6v-56.6c0-0.2,0.1-0.5,0.2-0.6c0.1-0.2,0.3-0.3,0.6-0.4c0.3-0.1,0.7-0.2,1.2-0.3c0.5-0.1,1.1-0.1,1.9-0.1
		c0.8,0,1.4,0,1.9,0.1c0.5,0.1,0.9,0.2,1.2,0.3c0.3,0.1,0.5,0.3,0.6,0.4c0.1,0.2,0.2,0.4,0.2,0.6v26.2l20.9-26.2
		c0.2-0.3,0.4-0.5,0.6-0.7c0.2-0.2,0.5-0.3,0.9-0.4c0.3-0.1,0.8-0.2,1.3-0.3s1.1-0.1,1.9-0.1c0.8,0,1.4,0,1.9,0.1
		c0.5,0.1,0.9,0.2,1.2,0.3c0.3,0.1,0.5,0.3,0.6,0.5c0.1,0.2,0.2,0.4,0.2,0.6c0,0.4-0.1,0.8-0.3,1.2c-0.2,0.4-0.6,0.9-1.1,1.6
		l-19.5,23.4l21,28c0.5,0.8,0.8,1.3,0.9,1.6C223.5,337.6,223.6,337.8,223.6,338z"/>
</g>
</svg>
