<svg id="ic_filetype_pdf" xmlns="http://www.w3.org/2000/svg" width="281" height="366" viewBox="0 0 281 366">
  <defs>
    <style>
      .cls-1 {
        fill: #e9e9e0;
      }

      .cls-1, .cls-3, .cls-4, .cls-5 {
        fill-rule: evenodd;
      }

      .cls-2, .cls-4 {
        fill: #cc4b4c;
      }

      .cls-3 {
        fill: #d9d7ca;
      }

      .cls-5 {
        fill: #fff;
      }
    </style>
  </defs>
  <path id="Rounded_Rectangle_1" data-name="Rounded Rectangle 1" class="cls-1" d="M281,80V361a5,5,0,0,1-5,5H5a5,5,0,0,1-5-5V5A5,5,0,0,1,5,0H201Z"/>
  <rect id="Rounded_Rectangle_1_copy" data-name="Rounded Rectangle 1 copy" class="cls-2" y="254" width="281" height="112"/>
  <path class="cls-3" d="M202,1V77h77Z"/>
  <path class="cls-4" d="M97.077,218h0a7.721,7.721,0,0,1-4.65-1.567c-5.006-3.755-5.679-7.933-5.362-10.779,0.875-7.827,10.555-16.019,28.781-24.365a322.677,322.677,0,0,0,18.216-51.683c-4.8-10.443-9.464-23.991-6.064-31.938,1.193-2.784,2.679-4.918,5.453-5.841A23.627,23.627,0,0,1,138.337,91c2.424,0,4.554,3.12,6.064,5.043,1.419,1.808,4.636,5.64-1.794,32.7,6.483,13.385,15.668,27.019,24.468,36.356a93.605,93.605,0,0,1,16.148-1.721c7.53,0,12.094,1.755,13.955,5.37,1.539,2.99.909,6.486-1.875,10.385a12.783,12.783,0,0,1-10.676,5.726c-5.848,0-12.657-3.693-20.25-10.986a230.5,230.5,0,0,0-42.452,13.567,136.445,136.445,0,0,1-11.46,20.438C105.536,214.779,101.285,218,97.077,218Zm12.8-24.644C99.6,199.13,95.414,203.875,95.111,206.548c-0.048.442-.178,1.606,2.073,3.327C97.9,209.649,102.083,207.74,109.878,193.356ZM175.456,172c3.92,3.015,4.877,4.539,7.44,4.539,1.125,0,4.332-.049,5.818-2.121a7.565,7.565,0,0,0,1.106-2c-0.591-.312-1.375-0.947-5.65-0.947A70.47,70.47,0,0,0,175.456,172Zm-35.921-31.644a342.866,342.866,0,0,1-12.859,36.365,240.2,240.2,0,0,1,31.238-9.711A164.564,164.564,0,0,1,139.535,140.356Zm-2.919-40.683c-0.472.159-6.4,8.447,0.461,15.462C141.641,104.966,136.822,99.606,136.616,99.673Z"/>
  <path id="PDF_copy" data-name="PDF copy" class="cls-5" d="M108.938,291.46a15.2,15.2,0,0,0-2.666-4.853,15.4,15.4,0,0,0-4.216-3.532,17.108,17.108,0,0,0-4.876-1.96,34.546,34.546,0,0,0-4.147-.684q-1.755-.159-3.669-0.159H76.74a3.315,3.315,0,0,0-2.142.775,3.161,3.161,0,0,0-.957,2.6v54.414a1.119,1.119,0,0,0,.182.638,1.209,1.209,0,0,0,.638.433,6.829,6.829,0,0,0,1.208.274,15.745,15.745,0,0,0,3.782,0,6.239,6.239,0,0,0,1.185-.274,1.351,1.351,0,0,0,.638-0.433,1.032,1.032,0,0,0,.205-0.638V316.821h6.7a28.8,28.8,0,0,0,9.411-1.367,18.668,18.668,0,0,0,6.654-3.873,16.845,16.845,0,0,0,4.169-6.062,20.839,20.839,0,0,0,1.459-7.975A18.894,18.894,0,0,0,108.938,291.46ZM100.8,303.081a10.6,10.6,0,0,1-2.415,3.874,11.071,11.071,0,0,1-3.942,2.529,16.435,16.435,0,0,1-5.9.912H81.48V286.743h7.246a27.787,27.787,0,0,1,4.124.319,11.2,11.2,0,0,1,4.1,1.5,9.372,9.372,0,0,1,3.327,3.6,12.243,12.243,0,0,1,1.344,6.016A14.229,14.229,0,0,1,100.8,303.081Zm64.554-6.129a24.366,24.366,0,0,0-5.423-9,23.618,23.618,0,0,0-8.864-5.7,37.064,37.064,0,0,0-12.943-1.982H124.774a3.234,3.234,0,0,0-1.982.706,2.931,2.931,0,0,0-.934,2.484v52.591a2.929,2.929,0,0,0,.934,2.484,3.228,3.228,0,0,0,1.982.706h12.487a40.449,40.449,0,0,0,13.034-1.868,23.642,23.642,0,0,0,9.229-5.628,24.3,24.3,0,0,0,5.719-9.48,41.3,41.3,0,0,0,1.96-13.375A36.1,36.1,0,0,0,165.357,296.952Zm-7.7,22.672a18.844,18.844,0,0,1-3.9,7.315,15.713,15.713,0,0,1-6.472,4.329,27.986,27.986,0,0,1-9.525,1.413H129.7V286.789h7.975a25.217,25.217,0,0,1,9.981,1.686,17.167,17.167,0,0,1,6.4,4.694,19.137,19.137,0,0,1,3.714,7.132,32.151,32.151,0,0,1,1.185,8.91A36.981,36.981,0,0,1,157.655,319.624Zm52.523-37.506a3.108,3.108,0,0,0-.319-1.071,1.577,1.577,0,0,0-.524-0.593,1.165,1.165,0,0,0-.616-0.182H182.2a3.234,3.234,0,0,0-1.982.706,2.931,2.931,0,0,0-.935,2.484v54.6a1.1,1.1,0,0,0,.821,1.071,6.808,6.808,0,0,0,1.23.274,13.221,13.221,0,0,0,1.869.114,13.042,13.042,0,0,0,1.914-.114,6.885,6.885,0,0,0,1.185-.274,1.094,1.094,0,0,0,.82-1.071V313.5h20.417a1.068,1.068,0,0,0,.615-0.206,1.824,1.824,0,0,0,.524-0.592,2.78,2.78,0,0,0,.319-1,10.4,10.4,0,0,0,.091-1.481,11.2,11.2,0,0,0-.091-1.572,2.571,2.571,0,0,0-.319-0.98,1.448,1.448,0,0,0-.524-0.524,1.287,1.287,0,0,0-.615-0.159H187.118V286.926h21.6a1.158,1.158,0,0,0,.616-0.183,1.61,1.61,0,0,0,.524-0.569,2.834,2.834,0,0,0,.319-1.026,10.9,10.9,0,0,0,.091-1.5A11.422,11.422,0,0,0,210.178,282.118Z"/>
</svg>
