<?xml version="1.0" encoding="utf-8"?>
<!-- Generator: Adobe Illustrator 19.2.0, SVG Export Plug-In . SVG Version: 6.00 Build 0)  -->
<svg version="1.1" id="ic_filetype_png" xmlns="http://www.w3.org/2000/svg" xmlns:xlink="http://www.w3.org/1999/xlink" x="0px"
	 y="0px" viewBox="0 0 281 366" style="enable-background:new 0 0 281 366;" xml:space="preserve">
<style type="text/css">
	.st0{fill:#E9E9E0;}
	.st1{fill:#1DB227;}
	.st2{fill:#D9D7CA;}
	.st3{enable-background:new    ;}
	.st4{fill:#FFFFFF;}
</style>
<path id="Rounded_Rectangle_1" class="st0" d="M281,80v281c0,2.8-2.2,5-5,5H5c-2.8,0-5-2.2-5-5V5c0-2.8,2.2-5,5-5h196L281,80z"/>
<rect id="Rounded_Rectangle_1_copy" y="254" class="st1" width="281" height="112"/>
<path class="st2" d="M202,1v76h77L202,1z"/>
<path class="st1" d="M171.4,111l53.6,79H117L171.4,111z M109.7,142l32.3,48H77L109.7,142z M119.5,105c6.4,0,11.5,5.1,11.5,11.5
	s-5.1,11.5-11.5,11.5s-11.5-5.1-11.5-11.5l0,0C108,110.1,113.1,105,119.5,105z"/>
<g class="st3">
	<path class="st4" d="M100.5,297.6c0,2.9-0.5,5.6-1.5,8c-1,2.4-2.4,4.4-4.2,6.1c-1.8,1.7-4,3-6.6,3.9c-2.6,0.9-5.8,1.4-9.4,1.4h-6.7
		v21.2c0,0.2-0.1,0.5-0.2,0.6c-0.1,0.2-0.3,0.3-0.6,0.4c-0.3,0.1-0.7,0.2-1.2,0.3c-0.5,0.1-1.1,0.1-1.9,0.1c-0.8,0-1.4,0-1.9-0.1
		c-0.5-0.1-0.9-0.2-1.2-0.3c-0.3-0.1-0.5-0.3-0.6-0.4c-0.1-0.2-0.2-0.4-0.2-0.6v-54.4c0-1.2,0.3-2.1,1-2.6s1.4-0.8,2.1-0.8H80
		c1.3,0,2.5,0.1,3.7,0.2c1.2,0.1,2.6,0.3,4.1,0.7c1.6,0.3,3.2,1,4.9,2c1.7,1,3.1,2.1,4.2,3.5c1.2,1.4,2,3,2.7,4.9
		C100.2,293.3,100.5,295.4,100.5,297.6z M92.2,298.2c0-2.4-0.4-4.4-1.3-6s-2-2.8-3.3-3.6c-1.3-0.8-2.7-1.3-4.1-1.5
		c-1.4-0.2-2.8-0.3-4.1-0.3h-7.2v23.6h7.1c2.4,0,4.3-0.3,5.9-0.9c1.6-0.6,2.9-1.4,3.9-2.5c1.1-1.1,1.9-2.4,2.4-3.9
		S92.2,300,92.2,298.2z"/>
	<path class="st4" d="M157,336c0,0.6-0.1,1.1-0.3,1.5c-0.2,0.4-0.5,0.8-0.8,1c-0.3,0.3-0.7,0.5-1.1,0.6c-0.4,0.1-0.8,0.2-1.2,0.2
		H151c-0.8,0-1.5-0.1-2.1-0.3c-0.6-0.2-1.2-0.5-1.7-0.9c-0.5-0.4-1.1-1-1.6-1.8s-1.1-1.7-1.7-2.9l-18-33.5c-0.9-1.7-1.9-3.5-2.8-5.4
		c-1-1.9-1.8-3.7-2.7-5.5h-0.1c0.1,2.2,0.1,4.4,0.1,6.7c0,2.3,0,4.5,0,6.8v35.6c0,0.2-0.1,0.4-0.2,0.6c-0.1,0.2-0.3,0.3-0.6,0.5
		c-0.3,0.1-0.7,0.2-1.2,0.3c-0.5,0.1-1.1,0.1-1.9,0.1c-0.8,0-1.4,0-1.9-0.1c-0.5-0.1-0.9-0.2-1.2-0.3c-0.3-0.1-0.5-0.3-0.6-0.5
		c-0.1-0.2-0.2-0.4-0.2-0.6v-54.4c0-1.2,0.3-2.1,1-2.6c0.7-0.5,1.4-0.8,2.3-0.8h3.9c0.9,0,1.7,0.1,2.3,0.2c0.6,0.2,1.2,0.4,1.6,0.8
		c0.5,0.3,1,0.8,1.4,1.5c0.5,0.6,0.9,1.4,1.4,2.3l13.8,25.9c0.9,1.6,1.7,3.1,2.5,4.6s1.6,3,2.3,4.4c0.7,1.5,1.5,2.9,2.2,4.3
		c0.7,1.4,1.4,2.8,2.1,4.3h0c-0.1-2.4-0.1-4.9-0.1-7.5c0-2.6,0-5.1,0-7.5v-32c0-0.2,0.1-0.4,0.2-0.6c0.1-0.2,0.3-0.3,0.6-0.5
		c0.3-0.1,0.7-0.2,1.2-0.3c0.5-0.1,1.1-0.1,1.9-0.1c0.7,0,1.3,0,1.8,0.1s0.9,0.2,1.2,0.3c0.3,0.1,0.5,0.3,0.6,0.5
		c0.1,0.2,0.2,0.4,0.2,0.6V336z"/>
	<path class="st4" d="M216.9,288.3c0,0.6,0,1.1-0.1,1.5c-0.1,0.4-0.2,0.8-0.3,1.1c-0.1,0.3-0.3,0.5-0.5,0.6s-0.4,0.2-0.6,0.2
		c-0.4,0-1-0.3-1.8-0.9s-2-1.2-3.4-1.9c-1.4-0.7-3.1-1.3-5.1-1.9c-2-0.6-4.3-0.9-7.1-0.9c-3.2,0-6.2,0.6-8.7,1.8
		c-2.6,1.2-4.8,2.8-6.6,4.9c-1.8,2.1-3.2,4.6-4.1,7.5c-1,2.9-1.4,6-1.4,9.4c0,3.8,0.5,7.1,1.6,10c1,2.9,2.5,5.4,4.3,7.4
		c1.9,2,4.1,3.5,6.6,4.6c2.6,1,5.4,1.5,8.4,1.5c1.8,0,3.7-0.2,5.5-0.7s3.6-1.1,5.2-2v-17.2h-13.7c-0.5,0-0.9-0.3-1.2-0.8
		c-0.3-0.5-0.4-1.3-0.4-2.4c0-0.6,0-1.1,0.1-1.5c0.1-0.4,0.2-0.7,0.3-1c0.1-0.3,0.3-0.4,0.5-0.6c0.2-0.1,0.4-0.2,0.7-0.2H214
		c0.3,0,0.7,0.1,1,0.2c0.3,0.1,0.6,0.3,0.9,0.5c0.3,0.2,0.5,0.6,0.6,1c0.2,0.4,0.2,0.9,0.2,1.5v22.5c0,0.8-0.1,1.5-0.4,2
		c-0.3,0.6-0.9,1.1-1.7,1.5s-2,0.9-3.4,1.4c-1.4,0.5-2.8,1-4.3,1.3s-3,0.6-4.5,0.8c-1.5,0.2-3,0.3-4.5,0.3c-4.6,0-8.6-0.7-12.2-2.1
		c-3.6-1.4-6.6-3.4-9.1-6c-2.5-2.6-4.4-5.7-5.7-9.4c-1.3-3.6-2-7.7-2-12.2c0-4.7,0.7-8.9,2.1-12.7c1.4-3.8,3.4-7,6-9.7
		c2.6-2.7,5.6-4.7,9.2-6.2c3.6-1.5,7.6-2.2,12-2.2c2.2,0,4.4,0.2,6.3,0.6c2,0.4,3.7,0.9,5.3,1.4s2.8,1.1,3.9,1.7
		c1,0.6,1.8,1.1,2.2,1.5s0.7,0.8,0.8,1.4C216.9,286.6,216.9,287.4,216.9,288.3z"/>
</g>
</svg>
