<?xml version="1.0" encoding="utf-8"?>
<!-- Generator: Adobe Illustrator 19.2.0, SVG Export Plug-In . SVG Version: 6.00 Build 0)  -->
<svg version="1.1" id="ic_filetype_pptx" xmlns="http://www.w3.org/2000/svg" xmlns:xlink="http://www.w3.org/1999/xlink" x="0px"
	 y="0px" viewBox="0 0 281 366" style="enable-background:new 0 0 281 366;" xml:space="preserve">
<style type="text/css">
	.st0{fill:#E9E9E0;}
	.st1{fill:#FF5722;}
	.st2{fill:#D9D7CA;}
	.st3{enable-background:new    ;}
	.st4{fill:#FFFFFF;}
</style>
<path id="Rounded_Rectangle_1" class="st0" d="M281,80v281c0,2.8-2.2,5-5,5H5c-2.8,0-5-2.2-5-5V5c0-2.8,2.2-5,5-5h196L281,80z"/>
<rect id="Rounded_Rectangle_1_copy" y="254" class="st1" width="281" height="112"/>
<path class="st2" d="M202,1v76h77L202,1z"/>
<path class="st1" d="M140,145h69.8c0.1,1.8,0.2,3.6,0.2,5.5c0,38.9-31.6,70.5-70.5,70.5S69,189.4,69,150.5S100.6,80,139.5,80h0
	c0.2,0,0.3,0,0.5,0V145z"/>
<path id="Ellipse_1_copy" class="st1" d="M153,72c36.6,0.3,66.9,28.5,69.8,65H153V72z"/>
<g class="st3">
	<path class="st4" d="M89.2,297.6c0,2.9-0.5,5.6-1.5,8c-1,2.4-2.4,4.4-4.2,6.1c-1.8,1.7-4,3-6.6,3.9c-2.6,0.9-5.8,1.4-9.4,1.4h-6.7
		v21.2c0,0.2-0.1,0.5-0.2,0.6c-0.1,0.2-0.3,0.3-0.6,0.4c-0.3,0.1-0.7,0.2-1.2,0.3c-0.5,0.1-1.1,0.1-1.9,0.1c-0.8,0-1.4,0-1.9-0.1
		c-0.5-0.1-0.9-0.2-1.2-0.3c-0.3-0.1-0.5-0.3-0.6-0.4c-0.1-0.2-0.2-0.4-0.2-0.6v-54.4c0-1.2,0.3-2.1,1-2.6s1.4-0.8,2.1-0.8h12.6
		c1.3,0,2.5,0.1,3.7,0.2c1.2,0.1,2.6,0.3,4.1,0.7c1.6,0.3,3.2,1,4.9,2c1.7,1,3.1,2.1,4.2,3.5c1.2,1.4,2,3,2.7,4.9
		C88.9,293.3,89.2,295.4,89.2,297.6z M80.9,298.2c0-2.4-0.4-4.4-1.3-6s-2-2.8-3.3-3.6c-1.3-0.8-2.7-1.3-4.1-1.5
		c-1.4-0.2-2.8-0.3-4.1-0.3h-7.2v23.6h7.1c2.4,0,4.3-0.3,5.9-0.9c1.6-0.6,2.9-1.4,3.9-2.5c1.1-1.1,1.9-2.4,2.4-3.9
		S80.9,300,80.9,298.2z"/>
	<path class="st4" d="M137.4,297.6c0,2.9-0.5,5.6-1.5,8c-1,2.4-2.4,4.4-4.2,6.1c-1.8,1.7-4,3-6.6,3.9c-2.6,0.9-5.8,1.4-9.4,1.4H109
		v21.2c0,0.2-0.1,0.5-0.2,0.6c-0.1,0.2-0.3,0.3-0.6,0.4c-0.3,0.1-0.7,0.2-1.2,0.3c-0.5,0.1-1.1,0.1-1.9,0.1c-0.8,0-1.4,0-1.9-0.1
		c-0.5-0.1-0.9-0.2-1.2-0.3c-0.3-0.1-0.5-0.3-0.6-0.4c-0.1-0.2-0.2-0.4-0.2-0.6v-54.4c0-1.2,0.3-2.1,1-2.6s1.4-0.8,2.1-0.8h12.6
		c1.3,0,2.5,0.1,3.7,0.2c1.2,0.1,2.6,0.3,4.1,0.7c1.6,0.3,3.2,1,4.9,2c1.7,1,3.1,2.1,4.2,3.5c1.2,1.4,2,3,2.7,4.9
		C137.1,293.3,137.4,295.4,137.4,297.6z M129.1,298.2c0-2.4-0.4-4.4-1.3-6s-2-2.8-3.3-3.6c-1.3-0.8-2.7-1.3-4.1-1.5
		c-1.4-0.2-2.8-0.3-4.1-0.3H109v23.6h7.1c2.4,0,4.3-0.3,5.9-0.9c1.6-0.6,2.9-1.4,3.9-2.5c1.1-1.1,1.9-2.4,2.4-3.9
		S129.1,300,129.1,298.2z"/>
	<path class="st4" d="M185.9,283.7c0,0.6,0,1.1-0.1,1.5c-0.1,0.4-0.2,0.8-0.3,1s-0.3,0.4-0.5,0.6c-0.2,0.1-0.4,0.2-0.7,0.2h-16.6
		v51.1c0,0.2-0.1,0.5-0.2,0.6c-0.1,0.2-0.3,0.3-0.6,0.4c-0.3,0.1-0.7,0.2-1.2,0.3c-0.5,0.1-1.1,0.1-1.9,0.1c-0.7,0-1.4,0-1.9-0.1
		c-0.5-0.1-0.9-0.2-1.2-0.3c-0.3-0.1-0.5-0.3-0.6-0.4c-0.1-0.2-0.2-0.4-0.2-0.6V287h-16.6c-0.2,0-0.5-0.1-0.7-0.2
		c-0.2-0.1-0.4-0.3-0.5-0.6c-0.1-0.3-0.2-0.6-0.3-1c-0.1-0.4-0.1-0.9-0.1-1.5c0-0.6,0-1.1,0.1-1.5s0.2-0.8,0.3-1.1
		c0.1-0.3,0.3-0.5,0.5-0.6c0.2-0.1,0.4-0.2,0.7-0.2h41c0.2,0,0.5,0.1,0.7,0.2c0.2,0.1,0.4,0.3,0.5,0.6c0.1,0.3,0.2,0.6,0.3,1.1
		S185.9,283.1,185.9,283.7z"/>
	<path class="st4" d="M231.9,336.4c0.4,0.7,0.6,1.2,0.7,1.6s0,0.7-0.3,0.9s-0.7,0.4-1.3,0.5c-0.6,0.1-1.5,0.1-2.5,0.1
		c-1,0-1.7,0-2.3-0.1s-1-0.1-1.3-0.3s-0.6-0.3-0.7-0.4c-0.2-0.2-0.3-0.4-0.4-0.7l-13.1-23.5l-13.3,23.5c-0.2,0.3-0.3,0.5-0.5,0.7
		c-0.2,0.2-0.4,0.3-0.8,0.4c-0.3,0.1-0.8,0.2-1.3,0.2c-0.5,0-1.3,0.1-2.2,0.1c-1,0-1.8,0-2.4-0.1c-0.6-0.1-1-0.2-1.2-0.5
		c-0.2-0.2-0.3-0.5-0.2-0.9s0.3-0.9,0.7-1.6l16.1-27.1l-15.3-26.2c-0.4-0.7-0.6-1.2-0.7-1.6s0-0.7,0.2-1c0.2-0.2,0.7-0.4,1.3-0.4
		s1.4-0.1,2.5-0.1c0.9,0,1.7,0,2.2,0.1c0.6,0,1,0.1,1.4,0.2c0.3,0.1,0.6,0.3,0.7,0.5s0.3,0.4,0.5,0.7l12.7,22l12.6-22
		c0.2-0.2,0.3-0.5,0.5-0.7s0.4-0.3,0.7-0.5c0.3-0.1,0.7-0.2,1.2-0.2c0.5,0,1.2-0.1,2.1-0.1c0.9,0,1.7,0,2.3,0.1
		c0.6,0.1,1,0.2,1.3,0.4s0.4,0.5,0.3,0.9c-0.1,0.4-0.3,0.9-0.6,1.6l-15.3,26L231.9,336.4z"/>
</g>
</svg>
