<?xml version="1.0" encoding="utf-8"?>
<!-- Generator: Adobe Illustrator 19.2.0, SVG Export Plug-In . SVG Version: 6.00 Build 0)  -->
<svg version="1.1" id="ic_filetype_rar" xmlns="http://www.w3.org/2000/svg" xmlns:xlink="http://www.w3.org/1999/xlink" x="0px"
	 y="0px" viewBox="0 0 281 366" style="enable-background:new 0 0 281 366;" xml:space="preserve">
<style type="text/css">
	.st0{fill:#E9E9E0;}
	.st1{fill:#174001;}
	.st2{fill:#D9D7CA;}
	.st3{enable-background:new    ;}
	.st4{fill:#FFFFFF;}
</style>
<path id="Rounded_Rectangle_1" class="st0" d="M281,80v281c0,2.8-2.2,5-5,5H5c-2.8,0-5-2.2-5-5V5c0-2.8,2.2-5,5-5h196L281,80z"/>
<rect id="Rounded_Rectangle_1_copy" y="254" class="st1" width="281" height="112"/>
<path class="st2" d="M202,1v76h77L202,1z"/>
<g>
	<path class="st1" d="M120,54h24.5v20.2H120V54z"/>
	<path id="Rectangle_2_copy" class="st1" d="M145.5,74.2H170v20.2h-24.5V74.2z"/>
	<path id="Rectangle_2_copy_2" class="st1" d="M120,94.3h24.5v20.2H120V94.3z"/>
	<path id="Rectangle_2_copy_3" class="st1" d="M120,134.7h24.5v20.2H120V134.7z"/>
	<path id="Rectangle_2_copy_4" class="st1" d="M120,154.8h50V208h-50V154.8z"/>
	<path id="Rectangle_2_copy_2-2" class="st1" d="M145.5,114.5H170v20.2h-24.5V114.5z"/>
</g>
<g class="st3">
	<path class="st4" d="M109.6,338.1c0,0.2,0,0.5-0.1,0.6c-0.1,0.2-0.3,0.3-0.6,0.5c-0.3,0.1-0.7,0.2-1.3,0.3
		c-0.5,0.1-1.3,0.1-2.2,0.1c-0.8,0-1.4,0-1.9-0.1c-0.5-0.1-0.9-0.2-1.2-0.3c-0.3-0.1-0.5-0.3-0.7-0.6c-0.2-0.2-0.3-0.5-0.4-0.9
		l-5.4-13.9c-0.6-1.6-1.3-3-2-4.3c-0.7-1.3-1.5-2.5-2.4-3.4c-0.9-1-2-1.7-3.3-2.2c-1.3-0.5-2.8-0.8-4.6-0.8h-5.2v25.1
		c0,0.2-0.1,0.5-0.2,0.6c-0.1,0.2-0.3,0.3-0.6,0.4c-0.3,0.1-0.7,0.2-1.2,0.3c-0.5,0.1-1.1,0.1-1.9,0.1c-0.8,0-1.4,0-1.9-0.1
		c-0.5-0.1-0.9-0.2-1.2-0.3c-0.3-0.1-0.5-0.3-0.6-0.4c-0.1-0.2-0.2-0.4-0.2-0.6v-54.6c0-1.2,0.3-2,0.9-2.5c0.6-0.5,1.3-0.7,2-0.7
		h12.5c1.5,0,2.7,0,3.7,0.1c1,0.1,1.9,0.2,2.7,0.3c2.3,0.4,4.3,1,6,1.9c1.7,0.9,3.2,1.9,4.4,3.2c1.2,1.3,2.1,2.8,2.7,4.5
		c0.6,1.7,0.9,3.5,0.9,5.6c0,2-0.3,3.7-0.8,5.3c-0.5,1.6-1.3,2.9-2.3,4.1c-1,1.2-2.2,2.2-3.6,3.1c-1.4,0.9-3,1.6-4.7,2.2
		c1,0.4,1.9,1,2.6,1.6c0.8,0.7,1.5,1.4,2.2,2.3c0.7,0.9,1.3,2,1.9,3.1c0.6,1.2,1.2,2.5,1.8,4l5.3,13c0.4,1.1,0.7,1.9,0.8,2.3
		C109.5,337.5,109.6,337.8,109.6,338.1z M97.8,296.7c0-2.3-0.5-4.3-1.5-5.9c-1-1.6-2.8-2.7-5.2-3.4c-0.8-0.2-1.6-0.4-2.6-0.5
		c-1-0.1-2.2-0.1-3.8-0.1h-6.6v19.9h7.7c2.1,0,3.8-0.3,5.4-0.8s2.8-1.2,3.8-2.1c1-0.9,1.7-2,2.2-3.2
		C97.5,299.4,97.8,298.1,97.8,296.7z"/>
	<path class="st4" d="M165,336.5c0.2,0.7,0.4,1.2,0.4,1.6c0,0.4-0.1,0.7-0.3,0.9c-0.2,0.2-0.6,0.3-1.2,0.4c-0.6,0.1-1.3,0.1-2.3,0.1
		c-0.9,0-1.7,0-2.3-0.1c-0.6,0-1-0.1-1.3-0.2c-0.3-0.1-0.5-0.3-0.6-0.4c-0.1-0.2-0.3-0.4-0.4-0.7l-5.1-14.3h-24.5l-4.8,14.2
		c-0.1,0.3-0.2,0.5-0.4,0.7c-0.2,0.2-0.4,0.4-0.7,0.5c-0.3,0.1-0.7,0.2-1.2,0.3c-0.5,0.1-1.2,0.1-2.1,0.1c-0.9,0-1.6,0-2.2-0.1
		c-0.6-0.1-1-0.2-1.2-0.4c-0.2-0.2-0.3-0.5-0.3-0.9c0-0.4,0.1-0.9,0.4-1.6l19.8-54.7c0.1-0.3,0.3-0.6,0.5-0.8
		c0.2-0.2,0.5-0.4,0.9-0.5c0.4-0.1,0.9-0.2,1.5-0.3c0.6,0,1.3-0.1,2.3-0.1c1,0,1.8,0,2.4,0.1c0.6,0,1.2,0.1,1.5,0.3
		c0.4,0.1,0.7,0.3,0.9,0.5s0.4,0.5,0.5,0.8L165,336.5z M139.7,288.1L139.7,288.1l-10.2,29.4H150L139.7,288.1z"/>
	<path class="st4" d="M214.2,338.1c0,0.2,0,0.5-0.1,0.6c-0.1,0.2-0.3,0.3-0.6,0.5s-0.7,0.2-1.3,0.3c-0.5,0.1-1.3,0.1-2.2,0.1
		c-0.8,0-1.4,0-1.9-0.1c-0.5-0.1-0.9-0.2-1.2-0.3c-0.3-0.1-0.5-0.3-0.7-0.6c-0.2-0.2-0.3-0.5-0.4-0.9l-5.4-13.9
		c-0.6-1.6-1.3-3-2-4.3c-0.7-1.3-1.5-2.5-2.4-3.4s-2-1.7-3.3-2.2s-2.8-0.8-4.6-0.8h-5.2v25.1c0,0.2-0.1,0.5-0.2,0.6
		c-0.1,0.2-0.3,0.3-0.6,0.4c-0.3,0.1-0.7,0.2-1.2,0.3c-0.5,0.1-1.1,0.1-1.9,0.1c-0.8,0-1.4,0-1.9-0.1c-0.5-0.1-0.9-0.2-1.2-0.3
		c-0.3-0.1-0.5-0.3-0.6-0.4c-0.1-0.2-0.2-0.4-0.2-0.6v-54.6c0-1.2,0.3-2,0.9-2.5c0.6-0.5,1.3-0.7,2-0.7h12.5c1.5,0,2.7,0,3.7,0.1
		c1,0.1,1.9,0.2,2.7,0.3c2.3,0.4,4.3,1,6,1.9c1.7,0.9,3.2,1.9,4.4,3.2c1.2,1.3,2.1,2.8,2.7,4.5s0.9,3.5,0.9,5.6c0,2-0.3,3.7-0.8,5.3
		c-0.5,1.6-1.3,2.9-2.3,4.1c-1,1.2-2.2,2.2-3.6,3.1c-1.4,0.9-3,1.6-4.7,2.2c1,0.4,1.9,1,2.6,1.6c0.8,0.7,1.5,1.4,2.2,2.3
		c0.7,0.9,1.3,2,1.9,3.1c0.6,1.2,1.2,2.5,1.8,4l5.3,13c0.4,1.1,0.7,1.9,0.8,2.3C214.1,337.5,214.2,337.8,214.2,338.1z M202.4,296.7
		c0-2.3-0.5-4.3-1.5-5.9c-1-1.6-2.8-2.7-5.2-3.4c-0.8-0.2-1.6-0.4-2.6-0.5c-1-0.1-2.2-0.1-3.8-0.1h-6.6v19.9h7.7
		c2.1,0,3.8-0.3,5.4-0.8c1.5-0.5,2.8-1.2,3.8-2.1c1-0.9,1.7-2,2.2-3.2C202.2,299.4,202.4,298.1,202.4,296.7z"/>
</g>
</svg>
