<?xml version="1.0" encoding="utf-8"?>
<!-- Generator: Adobe Illustrator 19.2.0, SVG Export Plug-In . SVG Version: 6.00 Build 0)  -->
<svg version="1.1" id="ic_filetype_vdo" xmlns="http://www.w3.org/2000/svg" xmlns:xlink="http://www.w3.org/1999/xlink" x="0px"
	 y="0px" viewBox="0 0 281 366" style="enable-background:new 0 0 281 366;" xml:space="preserve">
<style type="text/css">
	.st0{fill:#E9E9E0;}
	.st1{fill:#205B8D;}
	.st2{fill:#D9D7CA;}
	.st3{fill:#65B0EF;}
	.st4{fill:#FFFFFF;}
	.st5{enable-background:new    ;}
</style>
<path id="Rounded_Rectangle_1" class="st0" d="M281,80v281c0,2.8-2.2,5-5,5H5c-2.8,0-5-2.2-5-5V5c0-2.8,2.2-5,5-5h196L281,80z"/>
<rect id="Rounded_Rectangle_1_copy" y="254" class="st1" width="281" height="112"/>
<path class="st2" d="M202,1v76h77L202,1z"/>
<g id="btn_play">
	<circle class="st3" cx="141.5" cy="142.5" r="64.5"/>
	<path id="Triangle_504" class="st4" d="M166.9,143.2l-42.5,24.6v-49.3L166.9,143.2z"/>
</g>
<g class="st5">
	<path class="st4" d="M124.4,338.1c0,0.2-0.1,0.5-0.2,0.6c-0.1,0.2-0.3,0.3-0.7,0.4c-0.3,0.1-0.7,0.2-1.2,0.3
		c-0.5,0.1-1.1,0.1-1.9,0.1c-0.7,0-1.3,0-1.9-0.1c-0.5-0.1-0.9-0.2-1.2-0.3c-0.3-0.1-0.5-0.3-0.6-0.4c-0.1-0.2-0.2-0.4-0.2-0.6
		v-51.3h-0.1l-20.8,51.6c-0.1,0.2-0.2,0.4-0.4,0.5c-0.2,0.2-0.4,0.3-0.7,0.4c-0.3,0.1-0.7,0.2-1.1,0.2c-0.4,0-1,0.1-1.6,0.1
		c-0.6,0-1.2,0-1.6-0.1c-0.5-0.1-0.8-0.1-1.1-0.3c-0.3-0.1-0.5-0.2-0.7-0.4c-0.2-0.2-0.3-0.3-0.3-0.5l-19.9-51.6h0v51.3
		c0,0.2-0.1,0.5-0.2,0.6c-0.1,0.2-0.3,0.3-0.7,0.4c-0.3,0.1-0.7,0.2-1.2,0.3c-0.5,0.1-1.1,0.1-1.9,0.1c-0.8,0-1.4,0-1.9-0.1
		c-0.5-0.1-0.9-0.2-1.2-0.3c-0.3-0.1-0.5-0.3-0.6-0.4c-0.1-0.2-0.2-0.4-0.2-0.6v-54.2c0-1.3,0.3-2.2,1-2.7c0.7-0.5,1.4-0.8,2.3-0.8
		h4.8c1,0,1.8,0.1,2.6,0.3c0.7,0.2,1.4,0.5,1.9,0.9s1,0.9,1.4,1.5c0.4,0.6,0.7,1.3,1,2.1l16.9,42.7h0.2l17.5-42.5
		c0.3-0.9,0.7-1.7,1.1-2.3c0.4-0.6,0.8-1.1,1.3-1.5c0.5-0.4,1-0.7,1.6-0.8c0.6-0.2,1.3-0.3,2-0.3h5c0.5,0,0.9,0.1,1.3,0.2
		c0.4,0.1,0.8,0.3,1.1,0.6c0.3,0.3,0.5,0.7,0.7,1.1c0.2,0.4,0.3,1,0.3,1.6V338.1z"/>
	<path class="st4" d="M176.2,297.6c0,2.9-0.5,5.6-1.5,8s-2.4,4.4-4.2,6.1c-1.8,1.7-4,3-6.6,3.9c-2.6,0.9-5.8,1.4-9.4,1.4h-6.7v21.2
		c0,0.2-0.1,0.5-0.2,0.6c-0.1,0.2-0.3,0.3-0.6,0.4c-0.3,0.1-0.7,0.2-1.2,0.3c-0.5,0.1-1.1,0.1-1.9,0.1c-0.8,0-1.4,0-1.9-0.1
		c-0.5-0.1-0.9-0.2-1.2-0.3c-0.3-0.1-0.5-0.3-0.6-0.4c-0.1-0.2-0.2-0.4-0.2-0.6v-54.4c0-1.2,0.3-2.1,1-2.6s1.4-0.8,2.1-0.8h12.6
		c1.3,0,2.5,0.1,3.7,0.2c1.2,0.1,2.6,0.3,4.1,0.7s3.2,1,4.9,2c1.7,1,3.1,2.1,4.2,3.5c1.2,1.4,2,3,2.7,4.9
		C175.9,293.3,176.2,295.4,176.2,297.6z M168,298.2c0-2.4-0.4-4.4-1.3-6c-0.9-1.6-2-2.8-3.3-3.6c-1.3-0.8-2.7-1.3-4.1-1.5
		c-1.4-0.2-2.8-0.3-4.1-0.3h-7.2v23.6h7.1c2.4,0,4.3-0.3,5.9-0.9c1.6-0.6,2.9-1.4,3.9-2.5c1.1-1.1,1.9-2.4,2.4-3.9
		S168,300,168,298.2z"/>
	<path class="st4" d="M225,322.5c0,1-0.2,1.8-0.5,2.4c-0.3,0.6-0.7,0.9-1.3,0.9h-6.7v12.4c0,0.2-0.1,0.4-0.2,0.6s-0.3,0.3-0.7,0.4
		c-0.3,0.1-0.7,0.2-1.2,0.3c-0.5,0.1-1.1,0.1-1.9,0.1c-0.8,0-1.4,0-1.9-0.1c-0.5-0.1-0.9-0.2-1.2-0.3c-0.3-0.1-0.5-0.3-0.6-0.4
		c-0.1-0.2-0.2-0.4-0.2-0.6v-12.4h-24.1c-0.4,0-0.7,0-0.9-0.1c-0.2-0.1-0.5-0.3-0.7-0.5s-0.3-0.6-0.4-1c-0.1-0.5-0.1-1-0.1-1.8
		c0-0.6,0-1.1,0-1.5c0-0.5,0.1-0.9,0.2-1.3c0.1-0.4,0.2-0.7,0.4-1.1c0.1-0.3,0.3-0.7,0.5-1.1l21-35.8c0.2-0.2,0.4-0.5,0.7-0.6
		c0.3-0.2,0.7-0.3,1.1-0.5c0.5-0.1,1-0.2,1.7-0.3c0.7,0,1.5-0.1,2.4-0.1c1,0,1.9,0,2.7,0.1c0.8,0.1,1.4,0.2,1.8,0.3
		c0.5,0.1,0.8,0.3,1.1,0.5c0.2,0.2,0.4,0.4,0.4,0.7v37.6h6.7c0.5,0,0.9,0.3,1.3,0.8S225,321.4,225,322.5z M208.8,286.9L208.8,286.9
		l-19,32.3h19V286.9z"/>
</g>
</svg>
