<?xml version="1.0" encoding="utf-8"?>
<!-- Generator: Adobe Illustrator 19.2.0, SVG Export Plug-In . SVG Version: 6.00 Build 0)  -->
<svg version="1.1" id="ic_filetype_xls" xmlns="http://www.w3.org/2000/svg" xmlns:xlink="http://www.w3.org/1999/xlink" x="0px"
	 y="0px" viewBox="0 0 281 366" style="enable-background:new 0 0 281 366;" xml:space="preserve">
<style type="text/css">
	.st0{fill:#E9E9E0;}
	.st1{fill:#00733B;}
	.st2{fill:#D9D7CA;}
	.st3{fill:none;stroke:#00733B;stroke-width:5;}
	.st4{enable-background:new    ;}
	.st5{fill:#FFFFFF;}
</style>
<path id="Rounded_Rectangle_1" class="st0" d="M281,80v281c0,2.8-2.2,5-5,5H5c-2.8,0-5-2.2-5-5V5c0-2.8,2.2-5,5-5h196L281,80z"/>
<rect id="Rounded_Rectangle_1_copy" y="254" class="st1" width="281" height="112"/>
<path class="st2" d="M202,1v76h77L202,1z"/>
<g>
	<rect x="68" y="82" class="st3" width="145" height="137"/>
	<path class="st3" d="M71,170h142"/>
	<path id="Shape_2_copy" class="st3" d="M71,126h142"/>
	<path id="Shape_2_copy_2" class="st3" d="M145,84v134"/>
</g>
<g class="st4">
	<path class="st5" d="M120.2,336.4c0.4,0.7,0.6,1.2,0.7,1.6c0.1,0.4,0,0.7-0.3,0.9s-0.7,0.4-1.3,0.5c-0.6,0.1-1.5,0.1-2.5,0.1
		c-1,0-1.7,0-2.3-0.1c-0.5,0-1-0.1-1.3-0.3s-0.6-0.3-0.7-0.4c-0.2-0.2-0.3-0.4-0.4-0.7l-13.1-23.5l-13.3,23.5
		c-0.2,0.3-0.3,0.5-0.5,0.7c-0.2,0.2-0.4,0.3-0.8,0.4c-0.3,0.1-0.8,0.2-1.3,0.2c-0.5,0-1.3,0.1-2.2,0.1c-1,0-1.8,0-2.4-0.1
		c-0.6-0.1-1-0.2-1.2-0.5c-0.2-0.2-0.3-0.5-0.2-0.9c0.1-0.4,0.3-0.9,0.7-1.6l16.1-27.1l-15.3-26.2c-0.4-0.7-0.6-1.2-0.7-1.6
		c-0.1-0.4,0-0.7,0.2-1c0.2-0.2,0.7-0.4,1.3-0.4c0.6-0.1,1.4-0.1,2.5-0.1c0.9,0,1.7,0,2.2,0.1c0.6,0,1,0.1,1.4,0.2
		c0.3,0.1,0.6,0.3,0.7,0.5c0.2,0.2,0.3,0.4,0.5,0.7l12.7,22l12.6-22c0.2-0.2,0.3-0.5,0.5-0.7s0.4-0.3,0.7-0.5
		c0.3-0.1,0.7-0.2,1.2-0.2c0.5,0,1.2-0.1,2.1-0.1c0.9,0,1.7,0,2.3,0.1c0.6,0.1,1,0.2,1.3,0.4c0.3,0.2,0.4,0.5,0.3,0.9
		c-0.1,0.4-0.3,0.9-0.6,1.6l-15.3,26L120.2,336.4z"/>
	<path class="st5" d="M161.6,335.8c0,0.6,0,1.1-0.1,1.5c-0.1,0.4-0.2,0.8-0.3,1c-0.1,0.3-0.3,0.5-0.5,0.6c-0.2,0.1-0.4,0.2-0.7,0.2
		H134c-0.7,0-1.4-0.2-2-0.7c-0.6-0.5-0.9-1.3-0.9-2.5v-54.6c0-0.2,0.1-0.5,0.2-0.6c0.1-0.2,0.3-0.3,0.6-0.4c0.3-0.1,0.7-0.2,1.2-0.3
		c0.5-0.1,1.1-0.1,1.9-0.1c0.8,0,1.4,0,1.9,0.1c0.5,0.1,0.9,0.2,1.2,0.3c0.3,0.1,0.5,0.3,0.6,0.4c0.1,0.2,0.2,0.4,0.2,0.6v51H160
		c0.3,0,0.5,0.1,0.7,0.2c0.2,0.1,0.4,0.3,0.5,0.6c0.1,0.3,0.2,0.6,0.3,1C161.6,334.7,161.6,335.2,161.6,335.8z"/>
	<path class="st5" d="M201.9,322.7c0,2.8-0.5,5.2-1.5,7.4c-1,2.2-2.4,4-4.2,5.5s-3.9,2.6-6.4,3.4c-2.4,0.8-5.1,1.1-7.9,1.1
		c-2,0-3.8-0.2-5.5-0.5c-1.7-0.3-3.2-0.7-4.5-1.2c-1.3-0.5-2.4-1-3.3-1.5c-0.9-0.5-1.5-1-1.9-1.3c-0.3-0.4-0.6-0.8-0.8-1.4
		c-0.2-0.6-0.3-1.3-0.3-2.3c0-0.7,0-1.2,0.1-1.7c0.1-0.4,0.2-0.8,0.3-1.1c0.1-0.3,0.3-0.5,0.5-0.6c0.2-0.1,0.4-0.2,0.6-0.2
		c0.4,0,1,0.3,1.8,0.8c0.8,0.5,1.8,1.1,3,1.7c1.2,0.6,2.7,1.2,4.4,1.7c1.7,0.5,3.7,0.8,5.9,0.8c1.7,0,3.3-0.2,4.7-0.7
		c1.4-0.5,2.6-1.1,3.6-1.9c1-0.8,1.8-1.9,2.3-3.1c0.5-1.2,0.8-2.6,0.8-4.1c0-1.7-0.4-3.1-1.1-4.3c-0.8-1.2-1.8-2.2-3-3.1
		c-1.2-0.9-2.7-1.7-4.3-2.5c-1.6-0.7-3.2-1.5-4.9-2.3c-1.7-0.8-3.3-1.6-4.9-2.6c-1.6-0.9-3-2-4.2-3.3c-1.2-1.3-2.3-2.8-3-4.5
		c-0.8-1.7-1.2-3.8-1.2-6.2c0-2.5,0.4-4.7,1.3-6.6s2.1-3.5,3.7-4.9c1.6-1.3,3.5-2.3,5.7-3c2.2-0.7,4.6-1,7.1-1
		c1.3,0,2.6,0.1,3.9,0.3c1.3,0.2,2.6,0.5,3.7,0.9c1.2,0.4,2.2,0.8,3.1,1.3c0.9,0.5,1.5,0.9,1.8,1.1c0.3,0.3,0.5,0.5,0.6,0.7
		c0.1,0.2,0.2,0.4,0.2,0.6c0.1,0.3,0.1,0.6,0.1,0.9c0,0.4,0,0.8,0,1.4c0,0.5,0,1-0.1,1.5s-0.1,0.8-0.2,1.1c-0.1,0.3-0.2,0.5-0.4,0.6
		s-0.4,0.2-0.6,0.2c-0.3,0-0.9-0.2-1.6-0.6c-0.7-0.4-1.6-0.9-2.6-1.4c-1-0.5-2.3-1-3.7-1.5c-1.4-0.4-3-0.7-4.8-0.7
		c-1.6,0-3.1,0.2-4.3,0.7c-1.2,0.4-2.2,1-3,1.8c-0.8,0.7-1.4,1.6-1.8,2.6c-0.4,1-0.6,2.1-0.6,3.2c0,1.6,0.4,3.1,1.1,4.2
		c0.8,1.2,1.8,2.2,3,3.1c1.3,0.9,2.7,1.7,4.3,2.5c1.6,0.8,3.2,1.5,4.9,2.3s3.3,1.6,4.9,2.6s3,2,4.3,3.3c1.3,1.3,2.3,2.7,3.1,4.5
		C201.5,318.3,201.9,320.4,201.9,322.7z"/>
</g>
</svg>
