<?xml version="1.0" encoding="utf-8"?>
<!-- Generator: Adobe Illustrator 19.2.0, SVG Export Plug-In . SVG Version: 6.00 Build 0)  -->
<svg version="1.1" id="ic_filetype_zip" xmlns="http://www.w3.org/2000/svg" xmlns:xlink="http://www.w3.org/1999/xlink" x="0px"
	 y="0px" viewBox="0 0 281 366" style="enable-background:new 0 0 281 366;" xml:space="preserve">
<style type="text/css">
	.st0{fill:#E9E9E0;}
	.st1{fill:#3F0040;}
	.st2{fill:#D9D7CA;}
	.st3{enable-background:new    ;}
	.st4{fill:#FFFFFF;}
</style>
<path id="Rounded_Rectangle_1" class="st0" d="M281,80v281c0,2.8-2.2,5-5,5H5c-2.8,0-5-2.2-5-5V5c0-2.8,2.2-5,5-5h196L281,80z"/>
<rect id="Rounded_Rectangle_1_copy" y="254" class="st1" width="281" height="112"/>
<path class="st2" d="M202,1v76h77L202,1z"/>
<g>
	<path class="st1" d="M120,54h24.5v20.2H120V54z"/>
	<path id="Rectangle_2_copy" class="st1" d="M145.5,74.2H170v20.2h-24.5V74.2z"/>
	<path id="Rectangle_2_copy_2" class="st1" d="M120,94.3h24.5v20.2H120V94.3z"/>
	<path id="Rectangle_2_copy_3" class="st1" d="M120,134.7h24.5v20.2H120V134.7z"/>
	<path id="Rectangle_2_copy_4" class="st1" d="M120,154.8h50V208h-50V154.8z"/>
	<path id="Rectangle_2_copy_2-2" class="st1" d="M145.5,114.5H170v20.2h-24.5V114.5z"/>
</g>
<g class="st3">
	<path class="st4" d="M124.1,336c0,0.6,0,1.1-0.1,1.5c-0.1,0.4-0.2,0.8-0.3,1s-0.3,0.5-0.5,0.6c-0.2,0.1-0.4,0.2-0.7,0.2H87.7
		c-0.8,0-1.4-0.2-1.9-0.7c-0.5-0.5-0.7-1.3-0.7-2.3v-1.7c0-0.4,0-0.8,0.1-1.1c0-0.3,0.1-0.7,0.3-1.1c0.2-0.4,0.4-0.8,0.6-1.3
		c0.3-0.5,0.6-1,1-1.7l27.2-42.5H87.4c-0.3,0-0.6-0.1-0.8-0.2c-0.2-0.1-0.4-0.3-0.5-0.6s-0.2-0.6-0.3-1c-0.1-0.4-0.1-0.9-0.1-1.4
		c0-0.6,0-1.1,0.1-1.5c0.1-0.4,0.2-0.8,0.3-1c0.1-0.3,0.3-0.5,0.5-0.6c0.2-0.1,0.5-0.2,0.8-0.2h32.8c0.8,0,1.5,0.2,1.9,0.7
		c0.5,0.5,0.7,1.2,0.7,2.2v1.8c0,0.5,0,0.9-0.1,1.3c-0.1,0.4-0.2,0.8-0.3,1.2s-0.4,0.8-0.6,1.3c-0.3,0.5-0.6,1-1,1.6l-27.1,42.4
		h28.8c0.5,0,0.9,0.3,1.2,0.8C124,333.9,124.1,334.8,124.1,336z"/>
	<path class="st4" d="M141.7,338.1c0,0.2-0.1,0.5-0.2,0.6c-0.1,0.2-0.3,0.3-0.6,0.4c-0.3,0.1-0.7,0.2-1.2,0.3
		c-0.5,0.1-1.1,0.1-1.9,0.1c-0.7,0-1.4,0-1.9-0.1c-0.5-0.1-0.9-0.2-1.2-0.3c-0.3-0.1-0.5-0.3-0.6-0.4c-0.1-0.2-0.2-0.4-0.2-0.6
		v-56.6c0-0.2,0.1-0.5,0.2-0.6c0.1-0.2,0.4-0.3,0.7-0.4c0.3-0.1,0.7-0.2,1.2-0.3c0.5-0.1,1.1-0.1,1.8-0.1c0.8,0,1.4,0,1.9,0.1
		c0.5,0.1,0.9,0.2,1.2,0.3c0.3,0.1,0.5,0.3,0.6,0.4c0.1,0.2,0.2,0.4,0.2,0.6V338.1z"/>
	<path class="st4" d="M193.6,297.6c0,2.9-0.5,5.6-1.5,8s-2.4,4.4-4.2,6.1c-1.8,1.7-4,3-6.6,3.9c-2.6,0.9-5.8,1.4-9.4,1.4h-6.7v21.2
		c0,0.2-0.1,0.5-0.2,0.6c-0.1,0.2-0.3,0.3-0.6,0.4c-0.3,0.1-0.7,0.2-1.2,0.3c-0.5,0.1-1.1,0.1-1.9,0.1c-0.8,0-1.4,0-1.9-0.1
		c-0.5-0.1-0.9-0.2-1.2-0.3c-0.3-0.1-0.5-0.3-0.6-0.4c-0.1-0.2-0.2-0.4-0.2-0.6v-54.4c0-1.2,0.3-2.1,1-2.6s1.4-0.8,2.1-0.8h12.6
		c1.3,0,2.5,0.1,3.7,0.2c1.2,0.1,2.6,0.3,4.1,0.7s3.2,1,4.9,2c1.7,1,3.1,2.1,4.2,3.5c1.2,1.4,2,3,2.7,4.9
		C193.3,293.3,193.6,295.4,193.6,297.6z M185.4,298.2c0-2.4-0.4-4.4-1.3-6c-0.9-1.6-2-2.8-3.3-3.6c-1.3-0.8-2.7-1.3-4.1-1.5
		c-1.4-0.2-2.8-0.3-4.1-0.3h-7.2v23.6h7.1c2.4,0,4.3-0.3,5.9-0.9c1.6-0.6,2.9-1.4,3.9-2.5c1.1-1.1,1.9-2.4,2.4-3.9
		S185.4,300,185.4,298.2z"/>
</g>
</svg>
