<?xml version="1.0" encoding="utf-8"?>
<!-- Generator: Adobe Illustrator 19.2.0, SVG Export Plug-In . SVG Version: 6.00 Build 0)  -->
<svg version="1.1" id="Layer_1" xmlns="http://www.w3.org/2000/svg" xmlns:xlink="http://www.w3.org/1999/xlink" x="0px" y="0px"
	 viewBox="0 0 264 336" style="enable-background:new 0 0 264 336;" xml:space="preserve">
<style type="text/css">
	.st0{fill:#FFFFFF;}
</style>
<g >
	<path class="st0" d="M0,167.7c0,40.7,0,81.5,0,122.2C0,316.6,19.4,336,46.1,336c67.9,0,135.7,0,203.6,0c5.4,0,9.9-1.3,12.7-6.2
		c2.8-5,1.6-9.5-1.4-14c-10.5-16-10.3-32-0.1-48.2c1.8-2.9,3-6.7,3-10.1C264,176.3,264,95.2,264,14.1C264,4.6,259.4,0,250,0
		C182,0,114,0,46,0C19.3,0,0,19.4,0,46.2C0,86.7,0,127.2,0,167.7z"/>
	<path d="M0,167.7c0-40.5,0-81,0-121.5C0,19.4,19.3,0,46,0c68,0,136,0,204,0c9.4,0,14,4.6,14,14.1c0,81.1,0,162.2-0.1,243.4
		c0,3.4-1.2,7.2-3,10.1c-10.2,16.2-10.3,32.2,0.1,48.2c3,4.5,4.2,9.1,1.4,14c-2.8,5-7.3,6.3-12.7,6.2c-67.9-0.1-135.7,0-203.6,0
		C19.4,336,0,316.6,0,289.9C0,249.2,0,208.4,0,167.7z M232.2,271.5c-1.3,0-2.5,0-3.8,0c-60.6,0-121.2,0-181.7,0c-1.1,0-2.3,0-3.4,0
		c-11,0.6-19.8,10.3-19.3,21.3c0.5,11,9.8,19.2,21.8,19.2c61.1,0,122.2,0,183.2,0c1.1,0,2.1-0.1,3.2-0.2
		C228.4,294.2,228.4,294.2,232.2,271.5z M56.6,24c-3.6,0-6.8,0-10,0C32.4,24,24,32.4,24,46.6c0,67.1,0,134.2,0,201.2
		c0,1.3,0,2.7,0,4.8c10.5-5.9,21.6-5.2,32.6-5.1C56.6,172.9,56.6,98.7,56.6,24z M107.3,135.7c0,11-0.1,22,0,33
		c0,2.6,0.3,5.3,1.1,7.7c3.6,11.4,16.4,16.5,27.4,10.9c22-11.2,44-22.5,65.9-33.8c7.3-3.7,11.5-9.6,11.4-17.9
		c0-8.3-4.2-14.1-11.5-17.9c-21.7-11.1-43.3-22.2-65-33.3c-14.9-7.6-29.4,1.4-29.5,18.2C107.3,113.8,107.3,124.7,107.3,135.7z"/>
	<path d="M131.5,162.7c0-18.2,0-35.7,0-53.9c17.4,8.9,34.5,17.7,52.3,26.9C166.1,144.9,149,153.7,131.5,162.7z"/>
</g>
</svg>
