<?xml version="1.0" encoding="utf-8"?>
<!-- Generator: Adobe Illustrator 19.2.0, SVG Export Plug-In . SVG Version: 6.00 Build 0)  -->
<svg version="1.1" id="Layer_1" xmlns="http://www.w3.org/2000/svg" xmlns:xlink="http://www.w3.org/1999/xlink" x="0px" y="0px"
	 viewBox="0 0 384 336.5" style="enable-background:new 0 0 384 336.5;" xml:space="preserve">
<g fill="#000000;">
	<path d="M0,37.8c1.9-7.7,4.3-15.1,9.4-21.3C17.6,6.5,28.1,0.9,41,0.2C42.7,0.1,44.3,0,45.9,0c72.3,0,144.7,0,217,0.1
		c3.3,0,7.3,0.9,9.6,2.8c2.2,1.9,4,5.7,4,8.7c0.2,48,0.3,96,0.1,143.9c-0.1,23.1-19.9,41.8-43.8,41.8c-37.9,0.1-75.7,0-113.6,0
		c-7.1,0-14.2,0.1-21.4,0c-7-0.1-13.2,2-18.9,6.1c-19.5,13.9-39,27.9-58.6,41.8c-9.1,6.5-15,5.2-20.5-4.3C0,173.3,0,105.5,0,37.8z
		 M146.1,83.7c20.6,0,41.2,0,61.8,0c1.4,0,2.8,0,4.1-0.1c5.3-0.5,9.5-4.7,10-10c0.5-5.3-2.7-10.3-7.8-11.8c-1.8-0.5-3.7-0.6-5.5-0.6
		c-41.8,0-83.7,0-125.5,0c-1.7,0-3.8-0.2-5.1,0.6c-2.7,1.8-5.9,3.7-7.3,6.4c-3.8,7.4,2,15.4,10.9,15.4
		C103.1,83.7,124.6,83.7,146.1,83.7z M145.8,136.2c7.6,0,15.2,0,22.9,0c13.9,0,27.7,0.1,41.6,0c7.6,0,12.7-5.8,11.7-12.8
		c-0.8-5.9-5.7-9.7-12.7-9.7c-30,0-59.9,0-89.9,0c-12.4,0-24.7,0-37.1,0c-4.9,0-8.8,1.7-11.2,6.1c-4.1,7.6,1.3,16.3,10.4,16.4
		C102.9,136.3,124.4,136.2,145.8,136.2z"/>
	<path d="M384,328c-5,9.5-11.4,11-20.3,4.6c-19.2-13.7-38.5-27.4-57.6-41.2c-6.5-4.7-13.7-6.9-21.7-6.9c-43.9,0.1-87.7,0-131.6,0
		c-26.9,0-45.5-18.5-45.5-45.4c0-6.2,0-12.5,0-19.3c1.6,0,3.1,0,4.5,0c40.2,0,80.5,0.1,120.7,0c30.3-0.1,55.9-19,64-47.6
		c1.7-6,2.5-12.5,2.6-18.8c0.3-20.6,0.1-41.2,0.1-61.9c0-1.3,0-2.7,0-4.4c6.7,0,13-0.1,19.4,0c9.5,0.1,19.1-0.5,28.4,0.7
		c19,2.5,32.8,16.5,36.3,35.4c0.1,0.7,0.4,1.4,0.7,2.1C384,193,384,260.5,384,328z"/>
</g>
</svg>
