
<svg version="1.1" xmlns="http://www.w3.org/2000/svg" xmlns:xlink="http://www.w3.org/1999/xlink" x="0px" y="0px"
	 viewBox="0 0 512 465" >
<g transform="translate(0.000000,512.000000) scale(0.100000,-0.100000)">
	<path d="M3395,3890c-676-676-1234-1230-1240-1230c-5,0-164,154-352,342l-343,343l-245-245l-245-245l592-592l593-593l1482,1482
		l1483,1483l-242,242c-134,134-245,243-248,243S4071,4567,3395,3890z"/>
	<path d="M0,2725V470l2253,2l2252,3l3,1438c1,790-1,1437-6,1437c-4,0-161-154-350-343l-342-342v-748v-747H2255H700v1555v1555h1213
		h1212l350,350l350,350H1912H0V2725z"/>
</g>
</svg>
