<?xml version="1.0" encoding="utf-8"?>
<!-- Generator: Adobe Illustrator 19.2.0, SVG Export Plug-In . SVG Version: 6.00 Build 0)  -->
<svg version="1.1" id="Layer_1" xmlns="http://www.w3.org/2000/svg" xmlns:xlink="http://www.w3.org/1999/xlink" x="0px" y="0px"
	 viewBox="0 0 480.2 448" style="enable-background:new 0 0 480.2 448;" xml:space="preserve">
<g fill="#ffffff" transform="translate(0.000000,512.000000) scale(0.100000,-0.100000)">
	<path d="M362.9,5103c-169-45-301-180-346-351c-23-87-22-2700,0-2788c45-172,179-305,352-350c44-12,120-15,325-15h267l3-429
		c3-416,4-430,24-457c49-67,130-91,195-60c19,9,295,225,614,481l580,464l1000,1c1088,0,1053-2,1167,56c71,36,159,123,197,193
		c64,121,61,41,61,1511c0,1167-2,1343-15,1395c-45,172-179,305-352,350C4349.9,5126,445.9,5125,362.9,5103z M4407.9,4773
		c15-11,37-33,48-48c21-27,21-30,21-1365V2022l-29-37c-53-70,14-66-1125-66c-636,0-1039-4-1055-10c-14-5-239-180-501-390
		c-261-209-477-380-479-380c-3,0-7,153-8,339c-3,325-4,341-24,367c-11,15-33,37-48,48c-26,20-43,21-406,26s-380,6-406,26
		c-15,11-37,33-48,48c-21,27-21,32-24,1339c-1,722,0,1326,3,1344c7,40,49,91,90,109c25,11,377,13,1997,11l1967-2L4407.9,4773z"/>
	<path d="M1056.9,3825c-67-29-105-106-91-181c9-47,59-102,104-115c26-8,449-10,1354-8c1312,3,1317,3,1344,24c53,39,69,71,69,134
		s-16,95-69,134c-27,21-31,21-1354,23C1325.9,3838,1081.9,3836,1056.9,3825z"/>
	<path d="M1056.9,3185c-67-29-105-106-91-181c9-47,59-102,104-115c25-8,257-10,714-8c665,3,677,3,704,24c53,39,69,71,69,134
		s-16,95-69,134c-27,21-38,21-714,23C1217.9,3198,1080.9,3196,1056.9,3185z"/>
</g>
</svg>
