<?xml version="1.0" encoding="utf-8"?>
<!-- Generator: Adobe Illustrator 19.2.0, SVG Export Plug-In . SVG Version: 6.00 Build 0)  -->
<svg version="1.1" id="Layer_1" xmlns="http://www.w3.org/2000/svg" xmlns:xlink="http://www.w3.org/1999/xlink" x="0px" y="0px"
	 viewBox="0 0 316.5 384" style="enable-background:new 0 0 316.5 384;" xml:space="preserve">
<style type="text/css">
	.st0{fill:#FFFFFF;}
</style>
<g>
	<path class="st0" d="M238.5,384c-75.8,0-151.5,0-227.3,0c-6.1-2.6-10-6.9-11.3-13.5C0,272,0,173.5,0,75c3.9-10.8,7.1-13,18.8-13
		c67,0,133.9,0,200.9,0c5.2,0,10.6-0.5,15.7,0.2c3.5,0.5,7.2,2,10,4.1c3.8,2.9,4.4,7.5,4.4,12.2c-0.1,95.7-0.1,191.4,0.1,287.1
		C249.9,374.6,247.1,380.8,238.5,384z M153.9,131.1c-9.3-0.5-18.1,1.9-24.9,7.8c-10.6,9.3-20.4,19.4-30.4,29.5
		c-3.1,3.2-2.5,8.1,0.6,11.2c3.1,3.1,7.7,3.4,11.2,0.7c1-0.8,1.9-1.7,2.7-2.5c7.4-7.4,14.8-14.9,22.3-22.2c7-6.8,15.4-9.2,24.9-6.6
		c18.9,5,25.3,28.2,11.8,42.5c-7.8,8.3-16.1,16.1-24,24.2c-3.8,3.9-3.9,8.9-0.5,12.4c3.4,3.5,8.6,3.6,12.4-0.2
		c8.6-8.5,17.6-16.8,25.6-25.9c11.9-13.5,14.5-29.2,7.1-45.7C185.3,139.9,171.9,131.6,153.9,131.1z M81,288.9
		c11.7,0.3,21.5-4,29.9-11.9c2.9-2.7,5.7-5.6,8.5-8.4c5.3-5.3,10.7-10.5,15.9-15.9c5-5.3,2.7-13.2-4.1-14.6
		c-3.5-0.7-6.3,0.8-8.7,3.3c-7.8,7.9-15.6,15.9-23.6,23.5c-10.9,10.4-27.8,9.4-37.4-1.9c-8.6-10.2-8.1-24.8,1.5-34.7
		c7.9-8.2,16.1-16.1,24-24.2c3.6-3.7,3.4-8.7,0-12.1c-3.4-3.4-8.4-3.5-12.1,0.1c-8.6,8.5-17.5,16.8-25.6,25.8
		c-12,13.5-14.6,29.2-7.3,45.7C49.4,280.1,62.8,288.4,81,288.9z M150.2,187c-0.3-4.9-2-7.5-5.2-9c-3.8-1.7-7.1-0.6-9.9,2.2
		c-15.8,15.8-31.6,31.6-47.4,47.4c-3.9,4-4.1,9.1-0.5,12.6c3.6,3.6,8.6,3.4,12.6-0.6c15.8-15.8,31.6-31.5,47.3-47.4
		C148.8,190.6,149.6,188.1,150.2,187z"/>
	<path class="st0" d="M75.8,0C144.5,0,213.3,0,282,0c0.8,0.2,1.6,0.6,2.4,0.7c15.2,2.6,27.6,14.3,30.9,29.1c0.5,2,0.8,4.1,1.1,6.2
		c0,91.8,0,183.5,0,275.3c-0.2,0.8-0.5,1.7-0.6,2.5c-1.7,12.6-8.3,21.8-19.3,27.8c-6.7,3.7-14,5.5-22,4.9c0-1.9,0-3.4,0-4.9
		c0-54.5,0-109,0-163.5c0-33.4,0-66.7,0-100.1c0-7.5-1.4-14.7-5.3-21.2c-8.3-13.8-20.8-19.8-36.7-19.7c-61.9,0.1-123.7,0-185.6,0
		c-1.6,0-3.2,0-4.7,0C41.4,28,46.5,17,54.4,10C60.5,4.6,68,1.9,75.8,0z"/>
	<path class="st0" d="M316.5,36c-0.4-2.1-0.7-4.1-1.1-6.2C312.1,15,299.7,3.4,284.4,0.7c-0.8-0.1-1.6-0.5-2.4-0.7
		c11.5,0,23,0,34.5,0C316.5,12,316.5,24,316.5,36z"/>
	<path class="st0" d="M0,370.5c1.2,6.6,5.2,10.9,11.3,13.5c-3.8,0-7.5,0-11.3,0C0,379.5,0,375,0,370.5z"/>
</g>
</svg>
