<?xml version="1.0" encoding="utf-8"?>
<!-- Generator: Adobe Illustrator 19.2.0, SVG Export Plug-In . SVG Version: 6.00 Build 0)  -->
<svg version="1.1" id="Layer_1" xmlns="http://www.w3.org/2000/svg" xmlns:xlink="http://www.w3.org/1999/xlink" x="0px" y="0px"
	 viewBox="0 0 511 423.6" style="enable-background:new 0 0 511 423.6;" xml:space="preserve">
<g fill="#ffffff" transform="translate(0.000000,512.000000) scale(0.100000,-0.100000)">
	<path d="M2403,5113.8c-338-61-618-320-709-655c-30-110-33-316-5-425c56-218,186-409,360-530c70-48,203-108,291-131
		c113-30,317-30,430,0c88,23,221,83,291,131c174,121,304,312,360,530c28,109,25,315-5,425c-82,304-302,531-611,630
		c-71,23-107,28-220,31C2511,5120.8,2429,5118.8,2403,5113.8z M2694,4808.8c101-24,196-79,277-160c330-332,160-894-301-990
		c-132-28-248-11-381,54c-291,144-405,496-257,793c70,140,228,265,379,302C2489,4826.8,2615,4826.8,2694,4808.8z"/>
	<path d="M840,4279.8c-130-32-235-96-333-201c-263-281-224-740,81-971c71-54,177-105,257-125c70-17,229-17,300,0
		c78,19,205,82,273,136c102,81,196,232,228,365c18,77,16,231-4,310c-60,234-257,430-488,485C1077,4296.8,910,4296.8,840,4279.8z
		 M1099,3981.8c101-27,208-130,243-233c23-71,20-176-7-250c-32-83-123-174-205-205c-131-49-277-22-378,70c-199,181-141,503,109,605
		C928,3996.8,1025,4001.8,1099,3981.8z"/>
	<path d="M3951,4278.8c-229-58-423-253-483-485c-20-79-22-233-4-310c32-133,126-284,228-365c68-54,195-117,273-136
		c71-17,230-17,300,0c80,20,186,71,257,125c249,188,327,537,185,826c-28,58-57,96-127,165c-91,91-148,127-270,170
		C4241,4293.8,4032,4298.8,3951,4278.8z M4241,3972.8c254-95,318-425,117-609c-101-92-247-119-378-70c-82,31-173,122-205,205
		c-27,74-30,179-7,250c33,99,142,206,236,232C4070,3999.8,4179,3995.8,4241,3972.8z"/>
	<path d="M1939,3244.8c-192-47-373-179-466-339c-19-34-35-51-44-48c-51,20-213,27-496,24c-288-4-319-7-388-27
		c-130-39-224-95-325-196c-100-99-154-188-197-325c-23-74-23-79-23-575c0-550,0-554,61-656c58-97,154-171,263-203
		c49-14,274-16,2231-16s2182,2,2231,16c109,32,205,106,263,203c61,102,61,106,61,656c0,496,0,501-23,575c-43,137-97,226-197,325
		c-101,101-195,157-325,196c-69,20-100,23-388,27c-283,3-445-4-496-24c-9-3-25,14-44,48c-69,119-187,224-325,288
		c-149,69-160,70-764,69C2071,3262.8,2002,3260.8,1939,3244.8z M3116,2947.8c85-25,139-57,198-115c58-59,90-113,115-198
		c14-48,16-140,16-753v-698h-890h-890v698c0,756-1,742,55,852c28,55,116,145,170,173c109,56,109,56,661,56
		C2992,2963.8,3069,2961.8,3116,2947.8z M1353,2570.8c9-6,12-157,12-698v-689H881H398l-34,23c-69,46-69,42-69,523
		c0,252,4,454,10,485c34,179,183,328,360,358C731,2583.8,1335,2581.8,1353,2570.8z M4435,2572.8c185-29,335-174,370-358
		c6-31,10-233,10-485c0-481,0-477-69-523l-34-23h-484h-483l2,693l3,692l35,6C3845,2585.8,4367,2583.8,4435,2572.8z"/>
</g>
</svg>
