<svg xmlns="http://www.w3.org/2000/svg" width="400" height="382.662" viewBox="0 0 20.906 20">
  <g fill="#ffffff">
    <defs>
      <style>
        .cls-1 {
          fill-rule: evenodd;
        }
      </style>
    </defs>
    <path id="ic_home" class="cls-1" d="M63.33,255.836l-9.489-9.617a0.729,0.729,0,0,0-1.041,0l-9.489,9.617a1.508,1.508,0,0,0-.433,1.058,1.487,1.487,0,0,0,1.474,1.5h1v6.862a0.742,0.742,0,0,0,.737.748h5.757v-5.234h2.58V266h6.125a0.742,0.742,0,0,0,.737-0.748V258.39h1a1.457,1.457,0,0,0,1.044-.44A1.512,1.512,0,0,0,63.33,255.836Z" transform="translate(-42.875 -246)"/>
  </g>
</svg>
