<svg version="1.1" id="Layer_1" xmlns="http://www.w3.org/2000/svg" xmlns:xlink="http://www.w3.org/1999/xlink" x="0px" y="0px"
	 viewBox="0 0 400 400">
<path class="st0" d="M193.2,79.7c-9.1,2.5-16.5,10-19,19.2c-0.9,3.3-0.9,9.9,0,13.2c2.5,9.3,9.9,16.7,19.2,19.2
	c3.3,0.9,9.9,0.9,13.2,0c9.3-2.5,16.7-9.9,19.2-19.2c0.4-1.4,0.7-4.4,0.7-6.6c0-2.2-0.3-5.2-0.7-6.6c-2.5-9.3-9.9-16.7-19.2-19.2
	C203.4,78.8,196.3,78.9,193.2,79.7 M109.7,132.7c-2.4,1-4.6,3.4-6.3,6.6c-1.2,2.3-1.5,3.6-1.7,6.7c-0.3,4.6,0.3,6.4,2.6,9.1
	c4.1,4.8,7.3,6.1,35.4,14.9c12.2,3.8,23.2,7.5,24.5,8.2c1.6,0.9,2.7,1.9,3.3,3.2c2.7,5.1,0.4,23-10.4,82.2
	c-4.3,23.4-7.7,43.4-7.7,44.5c0,4.7,2.9,9.2,7.4,11.4c2.1,1,3.5,1.3,6.9,1.5c5.1,0.2,7.6-0.6,10.7-3.4c3.7-3.4,4.7-6,7.2-19.6
	c7.4-39.7,14.7-66,18.2-66c3.5,0,10,22.9,18.2,64.3c2.9,14.8,4,17.9,7.1,21c2.6,2.6,4.9,3.5,9.3,3.7c4.7,0.2,8.2-0.7,11.1-2.9
	c2.5-1.9,4.6-5.6,5-8.7c0.2-1.7-1.7-12.6-7.8-45.5c-9-48.1-11.7-66-11.3-75.2c0.2-4.9,0.2-5.1,1.6-6.6c0.8-0.8,2.5-2,3.7-2.7
	c1.3-0.7,13-4.9,26-9.4c13-4.5,25.1-9,26.7-9.9c3.7-2,6.8-4.9,8.1-7.6c0.8-1.7,1-2.7,0.8-5.9c-0.4-8.4-5.5-14.5-12.1-14.5
	c-1.4,0-4.9,0.7-8.2,1.7c-8.3,2.4-25.2,6.5-34.9,8.4c-33.3,6.6-52.9,6.7-85.9,0c-11.9-2.4-27.4-6.1-35.4-8.5
	C115.8,131.8,112.4,131.5,109.7,132.7"/>
<g>
	<path class="st0" d="M200,400C89.7,400,0,310.3,0,200C0,89.7,89.7,0,200,0c110.3,0,200,89.7,200,200C400,310.3,310.3,400,200,400z
		 M200,19.3c-99.6,0-180.7,81.1-180.7,180.7S100.4,380.7,200,380.7S380.7,299.6,380.7,200S299.6,19.3,200,19.3z"/>
</g>
</svg>
