<svg version="1.1" xmlns="http://www.w3.org/2000/svg" xmlns:xlink="http://www.w3.org/1999/xlink" x="0px" y="0px" viewBox="0 0 512 512">
	<g>
		<circle cx="60" cy="60" r="60"/>
		<path d="M452,0H252.9v0.1C221.2,1.7,196,27.9,196,60s25.2,58.3,56.9,59.9v0.1H452c33.1,0,60-26.9,60-60S485.1,0,452,0z"/>
	</g>
	<g>
		<circle cx="60" cy="256" r="60"/>
		<path d="M452,196H252.9v0.1c-31.7,1.6-56.9,27.8-56.9,59.9s25.2,58.3,56.9,59.9v0.1H452c33.1,0,60-26.9,60-60S485.1,196,452,196z"/>
	</g>
	<g>
		<circle cx="60" cy="452" r="60"/>
		<path d="M452,392H252.9v0.1c-31.7,1.6-56.9,27.8-56.9,59.9s25.2,58.3,56.9,59.9v0.1H452c33.1,0,60-26.9,60-60S485.1,392,452,392z"/>
	</g>
</svg>
