<?xml version="1.0" encoding="utf-8"?>
<!-- Generator: Adobe Illustrator 19.2.0, SVG Export Plug-In . SVG Version: 6.00 Build 0)  -->
<svg version="1.1" id="Layer_1" xmlns="http://www.w3.org/2000/svg" xmlns:xlink="http://www.w3.org/1999/xlink" x="0px" y="0px"
	 viewBox="0 0 650.8 593.3" style="enable-background:new 0 0 650.8 593.3;" xml:space="preserve">
<style type="text/css">
	.st0{fill:#ffffff;}
</style>
<g>
	<path class="st0" d="M230,260c-71.7,0-130-58.3-130-130S158.3,0,230,0s130,58.3,130,130S301.7,260,230,260z M230,60
		c-38.6,0-70,31.4-70,70s31.4,70,70,70s70-31.4,70-70S268.6,60,230,60z"/>
</g>
<g>
	<path class="st0" d="M330,593.3H130c-71.7,0-130-58.3-130-130C0,373.3,73.3,300,163.3,300h133.3c90.1,0,163.3,73.3,163.3,163.3
		C460,535,401.7,593.3,330,593.3z M163.3,360C106.4,360,60,406.4,60,463.3c0,38.6,31.4,70,70,70h200c38.6,0,70-31.4,70-70
		c0-57-46.4-103.3-103.3-103.3H163.3z"/>
</g>
<g>
	<path class="st0" d="M563.3,292.5c-7.7,0-15.4-2.9-21.2-8.8c-11.7-11.7-11.7-30.7,0-42.4l6.3-6.3h-92.6c-16.6,0-30-13.4-30-30
		s13.4-30,30-30h93.3l-7.2-7.3c-11.6-11.8-11.5-30.8,0.3-42.4c11.8-11.6,30.8-11.5,42.4,0.3l57.5,58.3c0,0,0,0,0,0c0,0,0,0,0,0
		c0,0,0,0,0,0l0,0c2.5,2.5,4.4,5.4,5.9,8.4c0,0,0,0,0,0c0,0,0,0,0,0c0,0,0,0,0,0c0,0,0,0,0,0c0.2,0.4,0.4,0.8,0.5,1.2
		c1.4,3.5,2.2,7.2,2.2,11.2c0,0,0,0,0,0c0,0,0,0,0,0c0,0,0,0,0,0v0c0,0,0,0.1,0,0.1c0,0,0,0,0,0c0,0,0,0,0,0c0,0,0,0,0,0
		c0,0,0,0,0,0c0,0,0,0,0,0c0,0,0,0,0,0c0,0,0,0,0,0c0,4.1-0.8,7.9-2.3,11.5c-0.2,0.5-0.4,1-0.7,1.5c0,0,0,0,0,0c0,0,0,0,0,0
		c0,0,0,0,0,0c0,0,0,0,0,0c0,0,0,0,0,0v0c-1.4,3-3.4,5.8-5.8,8.2l-57.5,57.5C578.7,289.6,571,292.5,563.3,292.5z"/>
</g>
</svg>
