<svg xmlns="http://www.w3.org/2000/svg" width="400" height="300" viewBox="0 0 20 15">
  <g fill="#ffffff">
    <defs>
    <style>
      .cls-1 {
        fill-rule: evenodd;
      }
    </style>
  </defs>
  <path id="ic_mail" class="cls-1" d="M61.1,442.529q-1.406,1.093-6.016,4.414l-0.391.312a10.866,10.866,0,0,1-1.484,1.016,3.474,3.474,0,0,1-1.719.547,3.655,3.655,0,0,1-1.719-.508,15.457,15.457,0,0,1-1.484-1.016l-0.391-.351q-4.727-3.438-6.016-4.414a0.253,0.253,0,0,0-.254-0.02,0.214,0.214,0,0,0-.137.215v7.969a1.867,1.867,0,0,0,1.875,1.875h16.25a1.867,1.867,0,0,0,1.875-1.875v-7.969a0.253,0.253,0,0,0-.137-0.234A0.193,0.193,0,0,0,61.1,442.529Zm-9.609,5.039a2.489,2.489,0,0,1-1.25-.469,9.327,9.327,0,0,1-1.211-.859l-0.391-.274q-4.8-3.514-6.524-4.844l-0.273-.195a0.889,0.889,0,0,1-.352-0.742v-0.742a1.867,1.867,0,0,1,1.875-1.875h16.25a1.867,1.867,0,0,1,1.875,1.875v0.742a0.889,0.889,0,0,1-.351.742l-0.2.156q-1.68,1.329-6.6,4.883l-0.391.274a9.326,9.326,0,0,1-1.211.859A2.489,2.489,0,0,1,51.494,447.568Z" transform="translate(-41.5 -437.562)"/>
  </g>
  
</svg>
