<?xml version="1.0" encoding="utf-8"?>
<!-- Generator: Adobe Illustrator 19.2.0, SVG Export Plug-In . SVG Version: 6.00 Build 0)  -->
<svg version="1.1" id="Layer_1" xmlns="http://www.w3.org/2000/svg" xmlns:xlink="http://www.w3.org/1999/xlink" x="0px" y="0px"
	 viewBox="0 0 463.5 511.7" style="enable-background:new 0 0 463.5 511.7;" xml:space="preserve">
<g fill="#ffffff" transform="translate(0.000000,512.000000) scale(0.100000,-0.100000)">
	<path d="M2646.7,5100.2c-67-40-77-76-77-288c0-164,2-188,20-224c30-60,64-81,132-81c66,0,103,22,130,76c26,49,27,403,2,455
		C2817.7,5113.2,2718.7,5143.2,2646.7,5100.2z"/>
	<path d="M1849.7,4620.2c-38-19-50-34-77-89c-18-37-310-656-648-1375l-616-1309l-249-250c-211-212-249-256-255-287
		c-15-81-16-80,358-456c385-386,387-387,472-362c32,10,80,51,240,211l200,199l430-431c237-237,447-439,467-450c47-24,89-24,136,0
		c48,25,617,597,631,634s14,93,0,120c-6,12-153,165-327,339l-315,316l94,44c1095,514,1690,798,1716,821c41,36,58,92,44,145
		c-9,31-188,214-1083,1109c-607,607-1085,1077-1101,1083C1924.7,4647.2,1898.7,4644.2,1849.7,4620.2z M3746.7,2446.2
		c-5-6-2429-1144-2435-1144c-4,0-117,110-251,244c-195,195-242,248-237,263c4,10,262,559,573,1221l567,1203l892-892
		C3346.7,2850.2,3747.7,2447.2,3746.7,2446.2z M847.7,1329.2l212-212l-135-135l-135-135l-210,210c-116,115-210,214-210,220
		c0,10,250,265,260,265C632.7,1542.2,730.7,1446.2,847.7,1329.2z M2302.7,1004.2l287-287l-175-175l-175-175l-350,350
		c-192,192-346,353-342,357c9,9,444,216,457,217C2010.7,1292.2,2143.7,1163.2,2302.7,1004.2z"/>
	<path d="M3944.7,4623.2c-53-25-391-365-400-404c-33-133,89-239,210-182c17,9,111,96,208,193c146,148,177,184,186,220
		c21,76-18,153-92,181C4016.7,4646.2,3990.7,4644.2,3944.7,4623.2z"/>
	<path d="M4091.7,3332.2c-100-61-95-203,9-258c43-22,51-23,241-20c215,3,223,5,272,72c30,40,29,120-3,165c-40,55-67,61-288,61
		C4142.7,3352.2,4121.7,3350.2,4091.7,3332.2z"/>
</g>
</svg>
