<?xml version="1.0" encoding="utf-8"?>
<!-- Generator: Adobe Illustrator 19.2.0, SVG Export Plug-In . SVG Version: 6.00 Build 0)  -->
<svg version="1.1" id="Layer_1" xmlns="http://www.w3.org/2000/svg" xmlns:xlink="http://www.w3.org/1999/xlink" x="0px" y="0px"
	 viewBox="0 0 336 240" style="enable-background:new 0 0 336 240;" xml:space="preserve">
<g fill="#ffffff">
	<path d="M168,0c43.2,0,86.5,0,129.7,0C320.8,0,336,15.2,336,38.2c0,54.5,0,109,0,163.5c0,23-15.2,38.3-38.3,38.3
		c-86.5,0-173,0-259.4,0C15.3,240,0,224.7,0,201.7c0-54.5,0-109,0-163.5C0,15.3,15.3,0,38.3,0C81.5,0,124.7,0,168,0z M102.8,119.9
		c-1.6,0.3-2.7,0.6-3.7,0.8c-28.5,3.9-51,29.5-51.1,58.3c0,7.9,4.9,13,12.7,13c31.5,0,63,0,94.5,0c7.9,0,12.8-5.1,12.7-13
		c-0.1-27.1-20.1-51.7-46.7-57.5c-2.5-0.5-5.1-1-8.3-1.6c25.2-5.7,32.6-26,30.8-40c-2.4-18.5-17.3-31.8-35.4-31.9
		C90,47.9,74.8,61.3,72.2,79.9C69.7,98.2,81.5,113.8,102.8,119.9z M233.9,108c13.5,0,27,0,40.5,0c7.7,0,13.1-4.9,13.1-11.9
		c0.1-7.1-5.3-12.1-13.2-12.1c-27,0-54,0-81,0c-7.9,0-13.4,4.9-13.3,12c0,7.1,5.5,12,13.4,12C206.9,108,220.4,108,233.9,108z
		 M222.2,132c-9.6,0-19.2,0-28.9,0c-7.9,0-13.3,5-13.3,12.1c0,6.9,5.5,11.9,13.1,11.9c19.2,0,38.5,0,57.7,0c7.7,0,13.1-5,13.1-11.9
		c0.1-7.1-5.4-12.1-13.3-12.1C241.2,132,231.7,132,222.2,132z"/>
</g>
</svg>
