<?xml version="1.0" encoding="utf-8"?>
<!-- Generator: Adobe Illustrator 19.2.0, SVG Export Plug-In . SVG Version: 6.00 Build 0)  -->
<svg version="1.1" id="Layer_1" xmlns="http://www.w3.org/2000/svg" xmlns:xlink="http://www.w3.org/1999/xlink" x="0px" y="0px"
	 viewBox="0 0 395.8 561.8" style="enable-background:new 0 0 395.8 561.8;" xml:space="preserve">
<g fill="#ffffff">
	<path d="M-0.1,561.7c0-57.7,0-115.4,0.1-173.1V381h395.9v180.7L-0.1,561.7L-0.1,561.7z"/>
<path d="M245.2,0.1c1.2,1.4,2.3,3.1,3.7,4.6c36,35.9,72,71.8,108.1,107.8c1.4,1.4,3.1,2.6,5.1,4.2c-1.8,2-3.1,3.4-4.4,4.8
	c-46.7,46.6-93.3,93.1-139.9,139.7c-2.5,2.9-6.3,4.4-10.1,4.1c-6.6-0.3-13.2,0.2-19.8-0.2c-2.6-0.1-5.1-1.1-7.2-2.8
	c-32.7-32.3-65.2-64.7-97.7-97.2c-0.5-0.6-1-1.1-2.2-2.6L244.2,0.1L245.2,0.1L245.2,0.1z"/>
<path d="M256.7,107.3c-20,19.2-39.6,37.8-60.5,57.8c-6.5-7.6-13.5-15.8-19.4-22.7c-9.4,8.4-17.4,15.6-25.7,23.1
	c16.1,15.4,31.7,30.4,47.6,45.8c27-27.3,53.7-54.4,79.9-81C270.9,122.2,263.5,114.4,256.7,107.3z"/>
<path d="M0.3,347.2V216.1c1.7-0.1,3.3-0.4,4.8-0.4c25.8,0,51.7,0,77.5,0.1c2-0.2,3.9,0.3,5.6,1.4c15.8,15.4,31.4,31.1,48,47.7H83
	v32.9c2,0.1,4,0.3,5.9,0.3c73,0,145.9-0.1,218.9,0.1c4.9,0,6.7-1.2,6.5-6.3c-0.4-8.6-0.1-17.2-0.1-26.4h-53.3c0.9-1.3,1.9-2.6,3-3.8
	c14.4-14.3,28.7-28.8,43.2-43c1.6-1.6,3.8-2.6,6.1-2.9c26.6-0.1,53.2-0.1,79.7,0c0.7,0,1.4,0.2,2.5,0.3v131.1L0.3,347.2L0.3,347.2z"
	/>
</g>
</svg>
