<?xml version="1.0" encoding="utf-8"?>
<!-- Generator: Adobe Illustrator 19.2.0, SVG Export Plug-In . SVG Version: 6.00 Build 0)  -->
<svg version="1.1" id="Layer_1" xmlns="http://www.w3.org/2000/svg" xmlns:xlink="http://www.w3.org/1999/xlink" x="0px" y="0px"
	 viewBox="0 0 384 384" style="enable-background:new 0 0 384 384;" xml:space="preserve">
<style type="text/css">
	.st0{fill:#FFFFFF;}
</style>
<g>
	<path class="st0" d="M203.3,0c7.2,1,14.3,1.7,21.4,3c32.9,5.9,62.2,19.7,88,40.9c2.6,2.2,4.9,3.3,8.6,2.6c17.6-3.6,35.5,8.7,38.8,26.4
		c3.5,18.4-8.2,36.3-26.2,39.7c-13.8,2.6-25.4-1.6-33.7-12.8c-8.3-11.2-9.2-23.4-2.9-36c0.4-0.8,0.8-1.5,1.2-2.2
		C248.1,18.7,172,7.9,107.5,45.2C71,66.3,45.7,97,31.8,136.8C18,176.5,19.6,216,35.6,255.2c-6.3,2.6-12.3,5-18.3,7.4
		c-0.8,0.3-1.6,0.5-2.6,0.8c-5.3-12.9-9.3-26-11.6-39.5c-1.2-6.9-2-13.8-3.1-20.7c0-7.8,0-15.5,0-23.3c0.2-1.1,0.6-2.2,0.6-3.3
		C3.8,138.4,17.2,104,41.1,73.8c30.6-38.5,70.1-62.4,118.6-71c6.7-1.2,13.5-1.9,20.3-2.9C187.8,0,195.5,0,203.3,0z"/>
	<path class="st0" d="M180.8,384c-6.8-0.9-13.6-1.7-20.3-2.8c-33.4-5.6-63-19.6-89.1-41c-2.8-2.3-5.1-3.3-8.9-2.5c-17.5,3.5-35.2-9-38.5-26.8
		c-3.4-18.2,8.4-36,26.2-39.3C63.7,269,75.3,273,83.6,284c8.5,11.2,9.5,23.6,3.2,36.3c-0.3,0.7-0.7,1.3-1,2c-0.1,0.1,0,0.2,0,0.4
		c50.1,42.5,126.6,53.6,191.4,15.7c36.2-21.2,61.4-51.9,75.1-91.5c13.7-39.6,12.1-79-3.9-118.1c7.1-2.9,13.8-5.6,20.8-8.4
		c5.4,13.1,9.3,26.2,11.7,39.7c1.2,6.9,2,13.8,3.1,20.7c0,7.8,0,15.5,0,23.3c-0.2,1-0.5,1.9-0.6,2.9c-1.3,8.6-2.1,17.4-3.9,25.9
		C363.6,308,300.8,368.3,225,381.1c-7,1.2-14,2-21,2.9C196.3,384,188.5,384,180.8,384z"/>
	
	<path class="st0" d="M137.7,225.6c-21.9,0-43.2,0-64.8,0c-6.2-22.5-6.2-44.8,0-67.2c21.6,0,42.9,0,64.7,0C135.2,180.8,135.1,203,137.7,225.6z"
		/>
	<path class="st0" d="M246.3,225.6c2.6-22.5,2.6-44.7,0-67.1c21.7,0,43.1,0,64.8,0c6.2,22.4,6.2,44.7,0,67.1
		C289.5,225.6,268.2,225.6,246.3,225.6z"/>
	<path class="st0" d="M223.6,225.6c-21.2,0-42.1,0-63.2,0c-2.9-22.4-2.9-44.6,0-67.1c21.1,0,42,0,63.2,0C226.5,180.8,226.4,203,223.6,225.6z"/>
	<path class="st0" d="M243.7,135.5c-4.8-12.7-9-25.1-14.2-37c-2.6-6-6.7-11.4-10.8-16.6c-5.1-6.5-11.9-10.9-20.8-13.3
		c41.8,1,85.1,27.8,103.7,66.9C282,135.5,262.5,135.5,243.7,135.5z"/>
	<path class="st0" d="M242.8,248.4c19.4,0,39,0,58.6,0c-12.4,28.6-50.4,64.6-103,67.1c22-7.5,30.5-26.1,37.7-45.5
		C238.9,263,240.6,255.8,242.8,248.4z"/>
	<path class="st0" d="M186.3,68.4c-18.8,5.7-27.7,19.8-34.5,35.4c-4.4,10.1-7.4,20.9-11.1,31.7c-18.9,0-38.5,0-58.1,0
		C94.6,107.5,132.6,70.9,186.3,68.4z"/>
	<path class="st0" d="M82.4,248.4c19.6,0,39.2,0,58.7,0c2.5,8,4.4,16.2,7.6,23.8c3.3,8,7.2,15.9,11.7,23.4c6.2,10.2,11.6,14,24.9,19.8
		C137.9,313.7,97.7,281.9,82.4,248.4z"/>
	<path class="st0" d="M219.4,135.6c-18.4,0-36.2,0-54.1,0c-0.1-0.4-0.3-0.7-0.2-1c3.2-12.4,7.3-24.4,14.6-35c8.1-11.8,16.4-11.8,24.7-0.1
		C211.8,110.2,215.8,122.5,219.4,135.6z"/>
	<path class="st0" d="M164.7,248.4c18.3,0,36.3,0,54.7,0c-4.2,14.4-8.2,28.6-18.3,39.9c-6,6.8-12.1,6.7-18.2-0.1c-2.8-3.1-5.2-6.7-7.2-10.4
		C170.6,268.7,167.3,258.8,164.7,248.4z"/>
</g>
</svg>
