<?xml version="1.0" encoding="utf-8"?>
<!-- Generator: Adobe Illustrator 19.2.0, SVG Export Plug-In . SVG Version: 6.00 Build 0)  -->
<svg version="1.1" id="Layer_1" xmlns="http://www.w3.org/2000/svg" xmlns:xlink="http://www.w3.org/1999/xlink" x="0px" y="0px"
	 viewBox="0 0 319.9 319.9" style="enable-background:new 0 0 319.9 319.9;" xml:space="preserve">
<style type="text/css">
	.st0{fill:#30906a;}
	.st1{fill:#ffffff;}
</style>
<g>
	<path class="st0" d="M256,96c0-1.8,0-3.2,0-4.6c0-19.4,0-38.7,0-58.1c0-19.6-13.6-33.3-33.2-33.3C159.5,0,96.3,0,33,0.1
		c-19.5,0-33,13.6-33,33.1c-0.1,79.5-0.1,159,0,238.5c0,27.4,20.8,48.2,48.2,48.3c74.5,0.1,149,0.1,223.4,0c3.8,0,7.8-0.4,11.5-1.3
		c22-5.3,36.6-24.3,36.6-47.4c0.1-52.5,0-105,0-157.5c0-1.1,0-2.3-0.1-3.4c-0.6-7.4-6.7-13.6-14.2-14.1c-4-0.3-8-0.1-12-0.1
		C281.3,96,268.9,96,256,96z"/>
	<path class="st1" d="M256,96c12.9,0,25.3,0,37.7,0c4,0,8-0.1,12,0.1c7.4,0.5,13.5,6.7,14.2,14.1c0.1,1.1,0.1,2.2,0.1,3.4
		c0,52.5,0.1,105,0,157.5c0,23.2-14.7,42.1-36.6,47.4c-3.7,0.9-7.7,1.3-11.5,1.3c-74.5,0.1-149,0.1-223.4,0
		c-27.4,0-48.2-20.9-48.2-48.3C0,192.1,0,112.6,0.1,33.1c0-19.5,13.5-33.1,33-33.1C96.3,0,159.5,0,222.8,0.1
		c19.7,0,33.2,13.7,33.2,33.3c0,19.4,0,38.7,0,58.1C256,92.8,256,94.2,256,96z M288,128.2c-11.1,0-21.5,0-31.8,0
		c0,53.4,0,106.4,0,159.8c4.4,0,8.7,0,12.9,0c12.7,0,18.9-6.2,18.9-18.8c0-45.6,0-91.2,0-136.8C288,131.1,288,129.8,288,128.2z
		 M127.9,208c18.4,0,36.7,0,55.1,0c9.8,0,16.8-6.6,16.9-15.7c0.1-9.4-6.8-16.3-16.7-16.3c-36.7-0.1-73.4-0.1-110.2,0
		c-2.7,0-5.5,0.6-7.9,1.7c-6.8,3-10.2,10.4-8.6,17.7c1.5,7.3,7.9,12.5,15.7,12.5C90.7,208,109.3,208,127.9,208z M128.2,232
		c-18.1,0-36.2,0-54.3,0c-1.7,0-3.5,0-5.2,0.4C61,234,55.5,241,56,248.6c0.5,8.3,6.6,15.2,15.2,15.2c37.8,0.3,75.7,0.1,113.5,0.1
		c1.6,0,3.2-0.5,4.7-1c7.4-2.6,11.6-10,10.3-17.9c-1.2-7.4-7.8-13-15.6-13.1C165.5,231.9,146.8,232,128.2,232z M127.7,120
		c-18.4,0-36.7,0-55.1,0c-8.3,0-14.5,4.9-16.2,12.3c-2.3,10.4,5,19.5,16,19.5c18.4,0.1,36.7,0,55.1,0c18.6,0,37.2,0,55.8,0
		c7.2,0,12.5-3.2,15.4-9.8c4.5-10.5-3.1-21.9-14.8-22C165.2,119.9,146.4,120,127.7,120z M96.3,64c-7.9,0-15.7,0-23.6,0
		c-9.4,0.1-16.4,6.6-16.7,15.6c-0.3,8.8,6.7,16.2,16,16.4c16.1,0.2,32.2,0.3,48.3,0c9.3-0.2,16-7.6,15.8-16.5
		c-0.3-8.8-7.3-15.4-16.5-15.4C111.7,63.9,104,64,96.3,64z"/>
</g>
</svg>
