<?xml version="1.0" encoding="utf-8"?>
<!-- Generator: Adobe Illustrator 19.2.0, SVG Export Plug-In . SVG Version: 6.00 Build 0)  -->
<svg version="1.1" id="Layer_1" xmlns="http://www.w3.org/2000/svg" xmlns:xlink="http://www.w3.org/1999/xlink" x="0px" y="0px"
	 viewBox="0 0 452.4 511.7" style="enable-background:new 0 0 452.4 511.7;" xml:space="preserve">
<g fill="#ffffff" transform="translate(0.000000,512.000000) scale(0.100000,-0.100000)">
	<path d="M1173,5112c-128-25-272-112-351-212c-49-61-102-170-121-247c-11-43-14-171-14-580c0-585-1-579,68-719
		c58-119,146-205,270-265c50-25,119-50,151-55c33-6,175-11,315-11h256l257-257l258-258l258,257l257,257l290,3c275,4,294,5,359,28
		c150,52,282,170,351,315c60,127,60,130,60,705c0,577,0,578-61,707c-68,143-192,255-347,312l-72,26l-1070,2
		C1699,5120,1197,5117,1173,5112z M3332,4806c67-22,146-92,176-158l24-50v-525c0-506-1-527-21-570c-26-58-81-115-144-148l-50-27
		l-335-3l-335-3l-192-192l-193-192l-193,193l-192,192h-316c-270,0-324,3-369,17c-67,22-146,92-176,158l-24,50v525v525l24,50
		c13,29,45,70,74,96c92,83,17,78,1168,78C3189,4823,3284,4822,3332,4806z"/>
	<path d="M2415,4231l-263-263l-158,158l-157,157l-105-105l-105-105l265-265l265-265l370,370l370,370l-105,105
		c-58,58-107,105-110,105S2559,4375,2415,4231z"/>
	<path d="M728,2247c-202-49-363-211-411-415c-36-152,0-324,93-448l26-34l-24-16C227,1213,99,1044,36,838L8,748L4,376L0,3h2262h2262
		l-4,372l-4,373l-28,90c-63,204-194,378-375,496l-25,16l26,34c235,312,63,773-323,864c-125,29-239,15-365-45
		c-300-144-402-521-215-801l37-55l-59-40c-32-21-97-79-143-128l-85-88l-17,23c-36,52-129,141-193,186c-66,44-68,48-54,67
		c37,51,68,109,87,163c26,71,35,216,19,295c-38,182-187,347-369,410c-95,32-249,32-344,0c-182-63-331-228-369-410
		c-14-70-7-221,15-287c15-46,54-120,91-171c14-19,12-23-54-67c-64-45-157-134-193-186l-17-23l-85,88c-46,49-111,107-143,128l-59,40
		l37,55c149,223,119,513-72,701C1108,2234,907,2290,728,2247z M968,1935c52-26,108-89,125-138c17-51,16-140-3-185
		c-67-157-274-204-400-91c-136,123-109,329,54,412c55,28,70,31,123,27C900,1958,946,1946,968,1935z M2334,1953
		c99-28,178-135,178-241c0-101-45-177-132-224c-43-24-65-29-118-29c-190,0-309,195-222,364C2096,1934,2214,1986,2334,1953z
		 M3776,1938c92-44,141-124,141-230c-1-83-23-133-83-187c-48-44-100-62-172-61c-212,2-324,257-182,415c35,39,73,63,122,79
		C3641,1967,3733,1959,3776,1938z"/>
</g>
</svg>
