<?xml version="1.0" encoding="utf-8"?>
<!-- Generator: Adobe Illustrator 19.2.0, SVG Export Plug-In . SVG Version: 6.00 Build 0)  -->
<svg version="1.1" id="Layer_1" xmlns="http://www.w3.org/2000/svg" xmlns:xlink="http://www.w3.org/1999/xlink" x="0px" y="0px"
	 viewBox="0 0 384 155.9" style="enable-background:new 0 0 384 155.9;" xml:space="preserve">
<g>
	<path d="M0,72c2.2-6,3.5-12.6,6.8-18c10.7-17.7,27-25.8,47.5-23c19.5,2.7,32.4,14.3,38.8,33c0.3,0.8,0.6,1.6,0.9,2.6
		c7,0,14,0,21.1,0c7.7-22.8,23.1-36.5,47.8-36c23.5,0.5,38,14,45.4,36.1c6.2,0,12.4,0.1,18.6-0.1c0.9,0,2.2-1.7,2.4-2.7
		c4.1-20.7,14.6-37.3,31.8-49.5C309-19.5,375.7,9.8,383.3,68c0.1,0.8,0.5,1.7,0.7,2.5c0,5,0,10,0,15c-0.9,4.1-1.5,8.3-2.6,12.4
		c-9.5,35.5-42.1,59.5-78.6,58c-36-1.5-66.4-27.9-73.2-63.8c-0.4-2.1-1.1-2.9-3.3-2.9c-6,0.1-12,0.1-17.8,0.1
		c-10.2,24.8-25.6,36.6-46.9,36.4c-18.5-0.2-39.1-11.6-46.2-36.3c-6.9,0-13.9,0-20.2,0c-3.5,6.2-6,12.7-10.2,18
		C72.3,123,55.5,128.9,36.1,124c-19.6-4.9-31.3-18.2-35.4-38C0.6,85.3,0.2,84.7,0,84C0,80,0,76,0,72z M323.3,51.1
		c-8.6,9.2-16.8,18-25.2,26.9c-4.7-4.3-9.3-8.5-14.1-12.8c-5.2,5.6-10.1,11-15.2,16.5c10.3,9.5,20.3,18.7,30.5,28
		c13.6-14.6,26.9-28.9,40.4-43.3C334.3,61.3,329,56.4,323.3,51.1z"/>
</g>
</svg>
