<?xml version="1.0" encoding="utf-8"?>
<!-- Generator: Adobe Illustrator 19.2.0, SVG Export Plug-In . SVG Version: 6.00 Build 0)  -->
<svg version="1.1" id="Layer_1" xmlns="http://www.w3.org/2000/svg" xmlns:xlink="http://www.w3.org/1999/xlink" x="0px" y="0px"
	 viewBox="0 0 316.1 384" style="enable-background:new 0 0 316.1 384;" xml:space="preserve">
<style type="text/css">
	.st0{fill:#000000;}
	.st1{fill:#ffffff;}
</style>
<g>
	<path class="st1" d="M238.3,384c-75.8,0-151.5,0-227.3,0c-7.2-3.1-11-8.2-11-16.4c0.1-96.4,0-192.7,0.1-289.1C0.1,67.7,5.7,62,16.5,62
		c18.1,0,36.2,0,54.4,0c54,0,108,0,162,0c4.2,0,8.2,0.5,11.6,3.3c4.1,3.5,5.2,8.2,5.2,13.4c-0.1,95.6-0.1,191.2,0.1,286.9
		C249.7,374.6,246.9,380.8,238.3,384z M127.3,167.2c19,0,38,0,57,0c8.3,0,14-5.1,14-12.3c0.1-7.3-5.7-12.4-13.9-12.4
		c-14.7,0-29.5,0-44.2,0c-23.7,0-47.5,0-71.2,0c-8.2,0-13.6,5.8-12.9,13.6c0.5,6.5,5.8,11.1,13.2,11.1
		C88.5,167.3,107.9,167.2,127.3,167.2z M127,266.3c19.2,0,38.5,0,57.7,0c7.9,0,13.6-5.2,13.5-12.4c0-7.2-5.7-12.3-13.7-12.3
		c-38.4,0-76.7,0-115.1,0c-8.1,0-13.6,5-13.6,12.3c-0.1,7.5,5.4,12.5,13.7,12.5C88.8,266.3,107.9,266.3,127,266.3z M126.9,216.7
		c19.4,0,38.7,0,58.1,0c6.4,0,11.2-3.4,12.8-9c2.3-8.3-3.6-15.7-12.6-15.8c-21.2-0.1-42.5,0-63.7,0c-17.5,0-35,0-52.5,0
		c-5.4,0-9.5,2.2-11.8,7.1c-4.1,8.4,2,17.6,11.7,17.7C88.2,216.8,107.5,216.7,126.9,216.7z"/>
	<path class="st1" d="M281.8,0c2.3,0.6,4.6,1.1,6.8,1.8C305.6,7,316,21,316,39.1c0.1,28.5,0,57,0,85.5c0,60.9-0.2,121.7,0.1,182.6
		c0.1,24.7-18.9,39-38.8,39.5c-0.8,0-1.7-0.1-2.9-0.2c0-1.7,0-3.3,0-4.9c0-87.7,0-175.5,0-263.2c0-18.6-9.7-33.3-26.2-38.8
		c-5.1-1.7-10.8-2.3-16.2-2.3c-61.6-0.2-123.2-0.1-184.8-0.1c-1.6,0-3.2,0-5.9,0c0.9-4.2,1.2-8.2,2.5-11.8
		C48.9,11.7,59.1,3.9,73.1,0.8c0.8-0.2,1.6-0.5,2.4-0.8C144.3,0,213,0,281.8,0z"/>
	<path class="st0" d="M127.3,167.2c-19.4,0-38.7,0-58.1,0c-7.3,0-12.7-4.6-13.2-11.1c-0.6-7.8,4.8-13.6,12.9-13.6
		c23.7,0,47.5,0,71.2,0c14.7,0,29.5,0,44.2,0c8.3,0,14,5.1,13.9,12.4c-0.1,7.3-5.7,12.3-14,12.3
		C165.3,167.3,146.3,167.2,127.3,167.2z"/>
	<path class="st0" d="M127,266.3c-19.1,0-38.2,0-57.4,0c-8.3,0-13.8-5-13.7-12.5c0.1-7.3,5.5-12.3,13.6-12.3c38.4,0,76.7,0,115.1,0
		c7.9,0,13.6,5.2,13.7,12.3c0,7.2-5.6,12.4-13.5,12.4C165.5,266.3,146.3,266.3,127,266.3z"/>
	<path class="st0" d="M126.9,216.7c-19.4,0-38.7,0-58.1,0c-9.7,0-15.8-9.3-11.7-17.7c2.4-4.8,6.5-7.1,11.8-7.1c17.5,0,35,0,52.5,0
		c21.2,0,42.5,0,63.7,0c9,0,14.9,7.5,12.6,15.8c-1.5,5.5-6.3,9-12.8,9C165.7,216.8,146.3,216.7,126.9,216.7z"/>
</g>
</svg>
