<?xml version="1.0" encoding="utf-8"?>
<!-- Generator: Adobe Illustrator 19.2.0, SVG Export Plug-In . SVG Version: 6.00 Build 0)  -->
<svg version="1.1" id="Layer_1" xmlns="http://www.w3.org/2000/svg" xmlns:xlink="http://www.w3.org/1999/xlink" x="0px" y="0px"
	 viewBox="0 0 384 338.7" style="enable-background:new 0 0 384 338.7;" xml:space="preserve">
<g>
	<path d="M0,153.7c8.9,0,17.7,0.1,26.6,0.1c49.7,0,99.5,0,149.2,0c1.5,0,3,0,4.7,0c0,7.5,0,14.7,0,22.3c-7.2,0-14.5,0-22.1,0
		c0,54.4,0,108.3,0,162.5c-45.4,0-90.4,0-135.8,0c0-53.9,0-107.9,0-162.5c-7.8,0-15.2,0-22.6,0C0,168.7,0,161.2,0,153.7z"/>
	<path d="M384,176.2c-7.3,0-14.7,0-22.4,0c0,54.4,0,108.3,0,162.5c-45.4,0-90.4,0-135.8,0c0-54,0-107.9,0-162.3
		c-7.6,0-14.9,0-22.4,0c0-7.6,0-14.8,0-22.6c1.6,0,3.1,0,4.7,0c57,0,114,0,171,0c1.6,0,3.2-0.1,4.9-0.1
		C384,161.2,384,168.7,384,176.2z"/>
	<path d="M90.5,0c21.5,0,39.1,17.6,39.2,39.1c0.1,21.6-17.8,39.5-39.3,39.4c-21.5-0.1-39.1-17.7-39.2-39.1C51,17.7,68.8,0,90.5,0z"
		/>
	<path d="M293.9,0c21.5,0.1,39,17.8,39,39.3c-0.1,21.6-18.1,39.5-39.5,39.2c-21.6-0.3-39.1-17.9-39-39.3
		C254.4,17.5,272.2-0.1,293.9,0z"/>
	<path d="M158.1,100.6c0,10.2,0,20.3,0,30.6c-45.1,0-90.1,0-135.6,0c0-5.6-0.1-11.2,0-16.7c0.1-4.6-1.3-10.3,0.8-13.4
		c2.1-3,7.9-3.5,12.1-5.1c5.3-2,10.5-4.1,15.8-5.8c1.4-0.5,3.5-0.3,4.7,0.4c23,14.1,45.9,14.1,68.9-0.1c1-0.6,2.7-1.1,3.7-0.7
		C138.4,93.2,148.2,96.9,158.1,100.6z"/>
	<path d="M361.5,131.2c-45.5,0-90.4,0-135.5,0c0-10.3,0-20.3,0-30.6c9.8-3.6,19.6-7.3,29.5-10.8c1-0.4,2.7,0,3.7,0.6
		c22.9,14.2,45.9,14.2,68.9,0.2c1.2-0.7,3.1-1,4.4-0.6c8.9,3.1,17.8,6.5,26.7,9.9c1,0.4,2.3,1.7,2.4,2.6
		C361.6,111.9,361.5,121.4,361.5,131.2z"/>
</g>
</svg>
