<?xml version="1.0" encoding="utf-8"?>
<!-- Generator: Adobe Illustrator 19.2.0, SVG Export Plug-In . SVG Version: 6.00 Build 0)  -->
<svg version="1.1" id="Layer_1" xmlns="http://www.w3.org/2000/svg" xmlns:xlink="http://www.w3.org/1999/xlink" x="0px" y="0px"
	 viewBox="0 0 283.7 319.5" style="enable-background:new 0 0 283.7 319.5;" xml:space="preserve">
<style type="text/css">
	.st0{fill:#FFFFFF;}
</style>
<g>
	<path class="st0" d="M34.4,177.5c9,0,18,0,27,0c5.3,0,7.5-2.3,7.6-7.6c0.1-3.9,0.1-7.7-0.1-11.6c-0.6-13.1-7.5-21.9-20.2-25.7
		c-9.2-2.8-18.5-2.8-27.7-0.3C7.3,136.1,0.1,145.5,0,159.7c0,3.4,0,6.7,0,10.1c0,5.6,2.1,7.7,7.7,7.7
		C16.6,177.5,25.5,177.5,34.4,177.5z M249.2,132.8c9.2,0,18.5,0.1,27.7,0c4.5,0,6.6-2.3,6.7-6.7c0.1-4,0.1-8,0-12
		c-0.2-12.6-6.7-21.6-18.7-25.6c-10.5-3.5-21.2-3.5-31.6,0.1C222.5,92.3,216,100,215,111.7c-0.4,4.6-0.3,9.2-0.2,13.9
		c0.1,5.1,2.3,7.2,7.4,7.3C231.2,132.8,240.2,132.8,249.2,132.8z M141.9,92.2c9.1,0,18.2,0,27.4,0c4.6,0,6.9-2.3,7-6.9
		c0.1-4,0.1-8,0-12C176,61.2,169.6,52,158.1,48c-10.7-3.7-21.6-3.7-32.3-0.1c-11.7,4-18.2,13.2-18.4,25.5c-0.1,3.7-0.1,7.5,0,11.2
		c0.1,5.3,2.2,7.5,7.6,7.5C123.9,92.3,132.9,92.2,141.9,92.2z M228,61.9c-0.1,11.7,9.4,21.3,21,21.4c11.8,0.1,21.5-9.5,21.6-21.3
		c0.1-11.5-9.6-21.3-21.1-21.4C237.6,40.5,228.1,50,228,61.9z M34.5,85.3c-12,0-21.4,9.5-21.5,21.4c0,11.6,9.6,21.2,21.3,21.2
		c11.9,0,21.4-9.5,21.4-21.4C55.7,94.7,46.2,85.2,34.5,85.3z"/>
	<path d="M16.6,319.5c-3-2.3-3.8-5.4-3.8-9.1C13,273,13,235.6,13,198.2c0-7.3,1.8-9,9.2-9c8.1,0,16.2,0,24.4,0
		c7.6,0,9.1,1.6,9.1,9.3c0,25.1,0,50.2,0,75.4c0,1.5,0,2.9,0,4.7c21.6,0,43,0,64.9,0c0-1.6,0-3.2,0-4.7c0-53.2,0-106.5,0-159.7
		c0-1.4,0-2.8,0.1-4.1c0.3-3.6,2.4-5.8,6-5.8c10.1-0.1,20.2-0.1,30.4,0c3.7,0,5.7,2.2,6,5.9c0.1,1.4,0.1,2.7,0.1,4.1
		c0,53.1,0,106.2,0,159.4c0,1.6,0,3.2,0,5.1c21.7,0,43,0,64.9,0c0-1.4,0-2.9,0-4.3c0-40.2,0-80.5,0-120.7c0-7.2,1.6-8.8,8.8-8.8
		c8.6,0,17.2,0,25.9,0c6,0,8,2,8,8.2c0,15.2,0,30.5,0,45.7c0,37.2,0,74.5,0.2,111.7c0,3.8-0.8,6.8-3.8,9.1
		C183.6,319.5,100.1,319.5,16.6,319.5z"/>
	<path d="M145.6,0c7.6,2.3,13.7,6.5,16.4,14.4c3.8,11-2,23.1-13,27c-11.2,4-23.4-1.9-27.3-13c-3.8-11,1.9-23,12.9-27
		c1.2-0.4,2.3-0.9,3.4-1.3C140.6,0,143.1,0,145.6,0z M150.9,21.3c0-5-4.2-9-9.2-9c-5,0.1-9,4.2-8.9,9.3c0.1,4.9,4,8.7,9,8.7
		C146.9,30.3,150.9,26.3,150.9,21.3z"/>
	<path d="M34.4,177.5c-8.9,0-17.7,0-26.6,0c-5.6,0-7.7-2.1-7.7-7.7c0-3.4,0-6.7,0-10.1c0.1-14.1,7.2-23.6,20.9-27.4
		c9.2-2.5,18.5-2.5,27.7,0.3c12.6,3.8,19.5,12.6,20.2,25.7c0.2,3.9,0.1,7.7,0.1,11.6c-0.1,5.3-2.3,7.5-7.6,7.6
		C52.3,177.5,43.3,177.5,34.4,177.5z M56.5,165c0-1.8,0-3.2,0-4.5c-0.1-9.6-3.8-14.9-13.3-16.4c-6-1-12.5-0.9-18.5,0.2
		C14.6,146.1,10,154.7,12.8,165C27.2,165,41.6,165,56.5,165z"/>
	<path d="M249.2,132.8c-9,0-18,0-27,0c-5.1,0-7.4-2.2-7.4-7.3c-0.1-4.6-0.2-9.3,0.2-13.9c1-11.7,7.4-19.4,18.4-23.1
		c10.5-3.6,21.1-3.6,31.6-0.1c12,4,18.4,13,18.7,25.6c0.1,4,0.1,8,0,12c-0.1,4.4-2.3,6.7-6.7,6.7
		C267.7,132.9,258.5,132.8,249.2,132.8z M271.1,120.4c2-11.4-2.1-18.5-12.3-21c-6.6-1.7-13.4-1.7-20,0.3c-9.6,2.8-13.8,10.9-11,20.7
		C242.3,120.4,256.7,120.4,271.1,120.4z"/>
	<path d="M141.9,92.2c-9,0-18,0-27,0c-5.3,0-7.5-2.2-7.6-7.5c0-3.7-0.1-7.5,0-11.2c0.2-12.3,6.7-21.5,18.4-25.5
		c10.7-3.7,21.6-3.7,32.3,0.1c11.4,4,17.9,13.1,18.2,25.3c0.1,4,0.1,8,0,12c-0.1,4.6-2.4,6.9-7,6.9C160.2,92.3,151,92.2,141.9,92.2z
		 M120,79.7c14.7,0,29.2,0,43.7,0c1.6-11.8-2.4-18.9-12.6-20.9c-5-1-10.5-1.2-15.6-0.5C123,59.9,118.3,66.6,120,79.7z"/>
	<path d="M228,61.9c0.1-11.9,9.6-21.4,21.5-21.3c11.5,0.1,21.2,9.9,21.1,21.4c-0.1,11.8-9.8,21.4-21.6,21.3
		C237.4,83.2,228,73.6,228,61.9z M258.2,62c0-5.1-3.9-9-9-9c-5,0-9.1,4.2-9,9.1c0.1,4.8,4.1,8.8,8.9,8.9C254.1,71,258.2,67,258.2,62
		z"/>
	<path d="M34.5,85.3c11.7,0,21.2,9.4,21.2,21.1c0,11.9-9.4,21.4-21.4,21.4c-11.6,0-21.3-9.6-21.3-21.2C13,94.8,22.5,85.3,34.5,85.3z
		 M34.6,115.5c4.9-0.1,9-4.3,8.9-9.1c-0.1-4.9-4.3-8.9-9.2-8.9c-5,0.1-8.9,4.1-8.8,9.2C25.5,111.8,29.5,115.6,34.6,115.5z"/>
</g>
</svg>
