<?xml version="1.0" encoding="utf-8"?>
<!-- Generator: Adobe Illustrator 19.2.0, SVG Export Plug-In . SVG Version: 6.00 Build 0)  -->
<svg version="1.1" id="Layer_1" xmlns="http://www.w3.org/2000/svg" xmlns:xlink="http://www.w3.org/1999/xlink" x="0px" y="0px"
	 viewBox="0 0 220.6 275.4" style="enable-background:new 0 0 220.6 275.4;" xml:space="preserve">
<style type="text/css">
	.st0{fill:#FFFFFF;}
</style>
<g>
	<path class="st0" d="M3.4,184c-2.4,3.9-3.3,7.8-3.3,12c0,9.9,0.2,19.7-0.1,29.6c-0.3,9.4,3.6,16.6,10.3,22.6
		c9.1,8.2,20,13.2,31.4,17c17.9,6,36.3,8.9,55.1,9.8c27.9,1.4,55.3-1,82-9.8c11.7-3.9,22.9-9,32-17.5c5.5-5.2,9.6-11.2,9.7-19.1
		c0.2-11.1,0.1-22.2,0-33.3c0-4-1-7.7-3.2-10.9c-2.6,2.8-5,5.8-7.7,8.3c-2.8,2.5-5.9,4.7-9.1,6.7c-13.8,8.4-29.1,12.9-44.8,15.9
		c-19.7,3.8-39.6,5-59.7,3.8c-20.5-1.2-40.6-4.4-59.8-11.8C23.5,202.2,11.6,196,3.4,184z M3.4,114.7c-2.3,3.9-3.3,7.8-3.3,12
		c0,9.9,0.2,19.7-0.1,29.6c-0.3,9.1,3.5,16.3,10,22.3c9.1,8.4,20.1,13.4,31.6,17.3c17.3,5.9,35.2,8.8,53.5,9.8
		c28.6,1.6,56.7-0.7,84.1-9.8c11.6-3.9,22.7-9,31.8-17.5c5.5-5.1,9.5-11.1,9.6-18.9c0.2-11.2,0.1-22.4,0-33.6c0-4-1-7.7-3.4-11.2
		c-4.2,6.7-10,11.5-16.5,15.4c-16.4,9.8-34.4,14.4-53,17.3c-20,3.1-40.1,3.5-60.3,1.7c-17.6-1.6-34.8-4.8-51.2-11.3
		C23.4,132.8,11.5,126.6,3.4,114.7z M218.4,48.1c-0.3,0-0.7,0-1,0c-1.3,5.8-5.2,9.8-9.9,12.9c-3.6,2.4-7.3,4.5-11.3,6.2
		c-17.3,7.7-35.7,10.9-54.4,12.8c-25.2,2.6-50.5,2.2-75.6-1.6c-14.5-2.1-28.7-5.2-42.1-11.3C15.2,63.1,6.4,58.6,3,48
		c-2.1,3.6-2.9,7.3-2.9,11.2C0.1,69.1,0.3,79.1,0,89c-0.2,9.2,3.7,16.2,10.1,22.2c9.2,8.4,20.3,13.4,31.9,17.3
		c16.2,5.5,33,8.3,50,9.4c29.4,2,58.4-0.2,86.5-9.4c11.8-3.9,23-9,32.3-17.6c5.6-5.2,9.6-11.4,9.7-19.4c0.1-11,0.2-22-0.1-33.1
		C220.4,55,219.1,51.5,218.4,48.1z"/>
	<path d="M122.7,0c4.5,0.4,8.9,0.7,13.4,1.1c19,1.6,37.7,4.6,55.6,11.3c7.4,2.8,14.5,6.2,20.3,11.7c5.9,5.5,7.4,12,3.6,18
		c-1.9,3-4.7,5.7-7.6,7.8c-10.1,7.4-21.8,11-33.8,13.9c-25.5,6.1-51.5,7.8-77.7,6.7c-18.3-0.8-36.4-2.9-54.1-7.7
		c-10.6-2.8-21-6.3-29.9-12.9c-2.8-2.1-5.5-4.7-7.4-7.6c-4-6.1-2.4-12.7,3.5-18.3c5.7-5.3,12.5-8.7,19.6-11.4
		C42.9,7,58.1,4,73.6,2.2C80.8,1.4,88.1,1,95.3,0.4C96,0.4,96.7,0.1,97.4,0C105.8,0,114.3,0,122.7,0z"/>
	<path d="M3.4,184c8.2,12,20.1,18.2,32.9,23.2c19.2,7.5,39.3,10.7,59.8,11.8c20,1.2,39.9,0,59.7-3.8c15.7-3,31-7.5,44.8-15.9
		c3.2-1.9,6.3-4.2,9.1-6.7c2.8-2.5,5.1-5.4,7.7-8.3c2.1,3.2,3.2,6.9,3.2,10.9c0.1,11.1,0.1,22.2,0,33.3c-0.1,7.9-4.1,13.9-9.7,19.1
		c-9.2,8.6-20.3,13.7-32,17.5c-26.6,8.8-54.1,11.2-82,9.8c-18.8-0.9-37.2-3.8-55.1-9.8c-11.4-3.9-22.3-8.8-31.4-17
		C3.7,242.1-0.3,234.9,0,225.5c0.3-9.9,0.1-19.7,0.1-29.6C0.1,191.7,1.1,187.8,3.4,184z"/>
	<path d="M3.4,114.7c8.1,11.9,20,18.1,32.6,23.1c16.5,6.5,33.7,9.7,51.2,11.3c20.2,1.8,40.3,1.4,60.3-1.7c18.6-2.9,36.6-7.5,53-17.3
		c6.5-3.9,12.3-8.7,16.5-15.4c2.4,3.5,3.4,7.2,3.4,11.2c0.1,11.2,0.2,22.4,0,33.6c-0.1,7.7-4.2,13.8-9.6,18.9
		c-9.1,8.5-20.1,13.6-31.8,17.5c-27.3,9.1-55.5,11.4-84.1,9.8c-18.2-1-36.1-3.9-53.5-9.8c-11.5-3.9-22.5-8.9-31.6-17.3
		c-6.5-6-10.2-13.1-10-22.3c0.3-9.9,0.1-19.7,0.1-29.6C0.1,122.5,1.1,118.6,3.4,114.7z"/>
	<path d="M218.4,48.1c0.7,3.5,2,6.9,2,10.4c0.3,11,0.2,22,0.1,33.1c-0.1,8-4.1,14.1-9.7,19.4c-9.2,8.6-20.5,13.7-32.3,17.6
		c-28.2,9.2-57.1,11.4-86.5,9.4c-17-1.1-33.8-4-50-9.4c-11.6-3.9-22.7-8.9-31.9-17.3C3.7,105.3-0.2,98.2,0,89
		c0.3-9.9,0.1-19.9,0.1-29.8c0-3.9,0.8-7.6,2.9-11.2c3.4,10.6,12.2,15.1,21.2,19.2c13.4,6.1,27.7,9.1,42.1,11.3
		c25.1,3.7,50.3,4.1,75.6,1.6c18.7-1.9,37.1-5.1,54.4-12.8c3.9-1.7,7.7-3.8,11.3-6.2c4.7-3.1,8.6-7.1,9.9-12.9
		C217.7,48.1,218.1,48.1,218.4,48.1z"/>
</g>
</svg>
