<?xml version="1.0" encoding="utf-8"?>
<!-- Generator: Adobe Illustrator 19.2.0, SVG Export Plug-In . SVG Version: 6.00 Build 0)  -->
<svg version="1.1" id="Layer_1" xmlns="http://www.w3.org/2000/svg" xmlns:xlink="http://www.w3.org/1999/xlink" x="0px" y="0px"
	 viewBox="0 0 372.3 332.2" style="enable-background:new 0 0 372.3 332.2;" xml:space="preserve">
<style type="text/css">
	.st0{fill:#FFFFFF;}
</style>
<g>
	<path class="st0" d="M267.9,271c0-79,0-158.7,0-239c-1.1,1-1.7,1.5-2.3,2.1C237,61.1,203.1,75.1,163.8,75.7
		c-14.4,0.2-28.7,0-43.1,0c-1.3,0-2.7,0-4,0c0,51.2,0,102,0,153c1.6,0,3,0,4.3,0c14,0,28,0,42,0c26.8,0,52,6.6,74.8,20.6
		C248.4,255.8,258,263.8,267.9,271z M104.5,75c-14.3,0.7-28.5,0.1-42.3,2.3C29,82.6,3.1,111.7,0.3,145
		c-2.9,34.7,17.8,66.9,50.3,78.7c17.5,6.3,35.5,4,53.4,4.2c0.2,0,0.4-0.3,0.5-0.5C104.5,177,104.5,126.5,104.5,75z M279.9,151.5
		c0,47.4,0,94.7,0,142.1c0,1.2-0.1,2.5,0,3.7c0.2,3.5,2.2,5.7,5.6,5.7c10.4,0.1,20.7,0.1,31.1,0c3.4,0,5.2-2.2,5.6-5.4
		c0.2-1.5,0.1-3,0.1-4.5c0-79.2,0-158.4,0-237.7c0-15.5,0-31,0-46.5c0-7.1-1.8-9-8.8-9c-8.4,0-16.7,0-25.1,0c-6.9,0-8.5,1.6-8.5,8.6
		C279.9,56.2,279.9,103.9,279.9,151.5z M143.4,240c-21.3,0-42.3,0-63.3,0c-0.2,0.4-0.4,0.6-0.4,0.8c0,20.6-0.5,41.2,0.1,61.8
		c0.5,16.4,14.8,29.3,31.1,29.5c18.3,0.2,32.4-14,32.6-32.9c0.1-18.6,0-37.2,0-55.9C143.6,242.4,143.5,241.3,143.4,240z M334.2,99
		c0,35.1,0,70.3,0,105.5c23.5-6.5,39.7-31.2,38-57.8C370.8,125.6,351.5,101.3,334.2,99z"/>
	<path d="M267.9,271c-9.9-7.2-19.5-15.2-30.1-21.7c-22.9-14-48-20.6-74.8-20.6c-14,0-28,0-42,0c-1.4,0-2.7,0-4.3,0
		c0-51,0-101.8,0-153c1.4,0,2.7,0,4,0c14.4,0,28.7,0.1,43.1,0c39.4-0.5,73.3-14.5,101.8-41.6c0.6-0.6,1.2-1.1,2.3-2.1
		C267.9,112.3,267.9,192,267.9,271z"/>
	<path d="M104.5,75c0,51.5,0,101.9,0,152.3c-0.2,0.2-0.4,0.5-0.5,0.5c-17.9-0.3-35.9,2.1-53.4-4.2c-32.4-11.7-53.2-44-50.3-78.7
		C3.1,111.7,29,82.6,62.2,77.4C76,75.2,90.2,75.7,104.5,75z"/>
	<path d="M279.9,151.5c0-47.6,0-95.2,0-142.8c0-7,1.6-8.6,8.5-8.6c8.4,0,16.7,0,25.1,0c7,0,8.8,1.9,8.8,9c0,15.5,0,31,0,46.5
		c0,79.2,0,158.4,0,237.7c0,1.5,0.1,3-0.1,4.5c-0.4,3.3-2.2,5.4-5.6,5.4c-10.4,0.1-20.7,0.1-31.1,0c-3.5,0-5.4-2.3-5.6-5.7
		c-0.1-1.2,0-2.5,0-3.7C279.9,246.2,279.9,198.8,279.9,151.5z"/>
	<path d="M143.4,240c0.1,1.3,0.2,2.4,0.2,3.5c0,18.6,0.1,37.2,0,55.9c-0.1,18.9-14.3,33.1-32.6,32.9c-16.4-0.2-30.6-13.1-31.1-29.5
		c-0.6-20.6-0.2-41.2-0.1-61.8c0-0.2,0.2-0.4,0.4-0.8C101.1,240,122.2,240,143.4,240z"/>
	<path d="M334.2,99c17.3,2.3,36.6,26.6,38,47.7c1.7,26.6-14.4,51.3-38,57.8C334.2,169.3,334.2,134.1,334.2,99z"/>
</g>
</svg>
