<?xml version="1.0" encoding="utf-8"?>
<!-- Generator: Adobe Illustrator 19.2.0, SVG Export Plug-In . SVG Version: 6.00 Build 0)  -->
<svg version="1.1" id="Layer_1" xmlns="http://www.w3.org/2000/svg" xmlns:xlink="http://www.w3.org/1999/xlink" x="0px" y="0px"
	 viewBox="0 0 320 319.8" style="enable-background:new 0 0 320 319.8;" xml:space="preserve">
<style type="text/css">
	.st0{fill:#8c6961;}
</style>
<g>
	<path class="st0" d="M148.3,277.7c-18.9,0-37.4,0.2-55.9-0.1c-9-0.2-16.8-8.7-17.3-17.8c-0.2-4.1,0-8.2-0.1-12.4
		c-0.1-3.1,0-6.3-0.8-9.3c-1.5-5.8-7-9.2-13.2-8.8c-6.5,0.4-11.7,3.8-11.8,9.3c-0.2,9.3-0.7,18.9,1.1,28
		c4.3,21.6,22.6,35.4,45.4,35.5c19,0.1,38,0.1,57,0c3.1,0,5.1,0.9,7,3.2c2.1,2.5,4.4,4.9,7.1,6.6c13.8,8.8,28.3,10.1,43.7,4.2
		c25.9-9.9,51.8-19.6,77.7-29.3c21.9-8.3,31.7-22.5,31.7-46c0-48.5,0-97,0-145.5c0-8,0.5-16-0.2-24C318,54.1,309.4,41,293.1,34.5
		c-26.8-10.7-53.9-20.4-80.8-30.6c-20.2-7.7-37.9-4.1-53.4,11c-1.4,1.4-3.9,2.3-5.8,2.3c-19.5,0.2-39,0-58.5,0.1
		C72.3,17.5,52.9,34,49.6,56C48.5,63.2,49,70.7,48.9,78c0,8,5.3,13.6,12.8,13.7c7.7,0.1,13.2-5.5,13.3-13.6c0.1-4.5,0-9,0-13.5
		c0-13.4,8.1-21.5,21.5-21.5c16,0,32,0,48,0c1.2,0,2.4,0.1,3.8,0.2C148.3,121.5,148.3,199.4,148.3,277.7z M80.2,175.8
		c0.1,0.3,0.1,0.6,0.2,0.9c-3,2.2-6.1,4.3-9.1,6.5c-5.4,4-6.4,11.9-2.2,17.3c4.1,5.3,12,6.3,17,1.4c12.1-11.7,24-23.7,35.7-35.8
		c2.4-2.5,3.5-6,1-9.2c-1.7-2.2-3.9-4-5.8-6c-9.8-9.7-19.4-19.5-29.4-29c-2.3-2.2-5.6-3.9-8.7-4.6c-5.2-1.2-10.3,2-12.7,6.7
		c-2.4,4.8-1.7,10.2,2.1,14.2c3.6,3.7,7.4,7.2,11.1,10.8c-4.8,0.9-9.2,0.9-13.5,0.9c-17.5,0-35-0.1-52.5,0c-7.7,0-13,4.8-13.4,11.8
		c-0.5,8.7,4.1,13.8,12.8,13.9c21.1,0.1,42.2,0,63.4,0.1C77.5,175.8,78.9,175.8,80.2,175.8z"/>
	<path class="st0" d="M148.3,277.7c0-78.3,0-156.2,0-234.4c-1.4-0.1-2.6-0.2-3.8-0.2c-16,0-32,0-48,0c-13.3,0-21.4,8.1-21.5,21.5
		c0,4.5,0.1,9,0,13.5c-0.2,8.1-5.7,13.7-13.3,13.6C54.2,91.6,48.9,86,48.9,78c0-7.4-0.4-14.8,0.7-22.1C52.9,34,72.3,17.5,94.6,17.4
		c19.5-0.1,39,0,58.5-0.1c2,0,4.4-0.9,5.8-2.3c15.5-15.1,33.2-18.7,53.4-11c26.9,10.3,54.1,19.9,80.8,30.6
		c16.2,6.5,24.9,19.6,26.5,36.9c0.7,7.9,0.2,16,0.2,24c0,48.5,0,97,0,145.5c0,23.4-9.8,37.7-31.7,46c-25.9,9.8-51.9,19.4-77.7,29.3
		c-15.4,5.9-29.9,4.5-43.7-4.2c-2.7-1.7-5-4.1-7.1-6.6c-1.9-2.3-4-3.2-7-3.2c-19,0.1-38,0.2-57,0c-22.7-0.2-41-14-45.4-35.5
		c-1.8-9-1.3-18.6-1.1-28c0.1-5.5,5.3-8.9,11.8-9.3c6.3-0.4,11.7,3.1,13.2,8.8c0.8,3,0.7,6.2,0.8,9.3c0.1,4.1-0.1,8.3,0.1,12.4
		c0.5,9,8.3,17.6,17.3,17.8C110.9,278,129.4,277.7,148.3,277.7z"/>
	<path class="st0" d="M80.2,175.8c-1.3,0-2.6,0-4,0c-21.1,0-42.2,0.1-63.4-0.1c-8.7,0-13.3-5.2-12.8-13.9c0.4-7,5.7-11.8,13.4-11.8
		c17.5-0.1,35,0,52.5,0c4.3,0,8.6,0,13.5-0.9c-3.7-3.6-7.5-7.1-11.1-10.8c-3.8-4-4.5-9.4-2.1-14.2c2.3-4.7,7.5-7.8,12.7-6.7
		c3.1,0.7,6.3,2.4,8.7,4.6c10,9.5,19.6,19.3,29.4,29c2,2,4.1,3.8,5.8,6c2.5,3.2,1.4,6.8-1,9.2C110,178.3,98.1,190.3,86,202
		c-5,4.8-12.9,3.8-17-1.4c-4.2-5.4-3.2-13.3,2.2-17.3c3-2.2,6.1-4.3,9.1-6.5C80.3,176.4,80.3,176.1,80.2,175.8z"/>
</g>
</svg>
