<?xml version="1.0" encoding="utf-8"?>
<!-- Generator: Adobe Illustrator 19.2.0, SVG Export Plug-In . SVG Version: 6.00 Build 0)  -->
<svg version="1.1" id="Layer_1" xmlns="http://www.w3.org/2000/svg" xmlns:xlink="http://www.w3.org/1999/xlink" x="0px" y="0px"
	 viewBox="0 0 312.1 344.2" style="enable-background:new 0 0 312.1 344.2;" xml:space="preserve">
<style type="text/css">
	.st0{fill:#FFFFFF;}
	.st1{fill:none;}
</style>
<g>
	<path class="st0" d="M72,216c0-1.8,0-3.1,0-4.5c0-14.6,0-29.2,0-43.9c0-12.3,8.3-20.9,20.6-21c18.2-0.2,36.5-0.2,54.7,0
		c12.3,0.1,20.6,8.7,20.7,21c0,4.4,0,8.7,0,13.3c16.1,0,31.8,0,48,0c0-1.5,0-2.8,0-4.1c0-20.1,0-40.2,0-60.4
		c0-13.5,8.2-21.7,21.7-21.7c17.5,0,35,0,52.5,0c13.5,0,21.8,8.2,21.8,21.6c0,68.6,0,137.2,0,205.9c0,13.5-8.1,21.7-21.7,21.7
		c-17.5,0-35,0.1-52.5,0c-2.8,0-5.7-0.7-8.5-1c-0.6-0.1-1.2-0.3-1.8-0.3c-21.8,3-43.6,1.2-65.4,0.9c-5.5-0.1-11,0.5-16.5,0.5
		c-17-0.2-34,0-51-0.1c-3.1,0-6.2-0.7-9.3-1c-0.6-0.1-1.2-0.3-1.8-0.2c-21.8,3-43.6,1-65.5,1.1c-9.7,0.1-17.9-8.9-17.9-18.8
		c-0.2-30-0.2-60,0-90c0.1-10.6,8.9-18.7,19.9-18.8c15.9-0.2,31.7,0,47.6,0C69,216,70.4,216,72,216z M240.3,118.8
		c0,67.1,0,133.9,0,200.8c16,0,31.8,0,47.6,0c0-67.1,0-133.8,0-200.8C271.9,118.8,256.2,118.8,240.3,118.8z M96.3,170.7
		c0,49.7,0,99.2,0,148.9c15.9,0,31.7,0,47.5,0c0-49.8,0-99.3,0-148.9C127.8,170.7,112.2,170.7,96.3,170.7z M168.2,319.5
		c16.1,0,31.9,0,47.6,0c0-38.2,0-76.1,0-114.1c-16,0-31.8,0-47.6,0C168.2,243.6,168.2,281.4,168.2,319.5z M71.8,319.7
		c0-26.7,0-53,0-79.5c-16,0-31.7,0-47.5,0c0,26.6,0,53,0,79.5C40.2,319.7,55.9,319.7,71.8,319.7z"/>
	<path class="st0" d="M243,38.8c-10.1,7.8-19.7,15.2-29.3,22.5c-16.3,12.6-32.7,25.1-49,37.7c-6.3,4.8-10.4,5-17.1,0.8
		C135,91.9,122.5,84,109.1,75.5c-4.6,4.8-9.1,9.8-13.8,14.6c-13.8,13.8-27.7,27.4-41.5,41.2c-3.3,3.3-7,5.3-11.7,4.4
		c-9.1-1.6-13-12.5-7-19.5c1.7-2,3.6-3.8,5.5-5.6c19.1-19.1,38.2-38.2,57.3-57.3c6.5-6.5,11.5-7,19.3-1.9c12.2,8,24.4,16,36.6,24.1
		c1.7,1.1,2.8,1.4,4.6,0c21.4-16.8,42.9-33.5,64.4-50.3c0.2-0.2,0.3-0.4,0.8-0.9c-1.1-0.1-2-0.3-2.9-0.3c-5.4,0-10.8,0.1-16.1,0
		c-7.1-0.1-12.3-5.3-12.3-12c0-6.7,5.2-11.9,12.2-12C222.7,0,241,0,259.4,0c8.3,0,13.6,6.3,12.3,14.7c-2.5,15.5-5.1,31.1-7.7,46.6
		c-1.2,7.3-7.6,11.9-14.3,10.6c-6.6-1.3-10.6-7.6-9.3-14.8c0.9-5.4,1.8-10.8,2.7-16.3C243.1,40.4,243,40,243,38.8z"/>
	<path class="st1" d="M240.3,118.8c16,0,31.7,0,47.6,0c0,66.9,0,133.7,0,200.8c-15.8,0-31.6,0-47.6,0
		C240.3,252.7,240.3,185.9,240.3,118.8z"/>
	<path class="st1" d="M96.3,170.7c15.9,0,31.6,0,47.5,0c0,49.6,0,99.1,0,148.9c-15.8,0-31.6,0-47.5,0
		C96.3,269.9,96.3,220.4,96.3,170.7z"/>
	<path class="st1" d="M168.2,319.5c0-38.1,0-75.9,0-114.1c15.9,0,31.6,0,47.6,0c0,38,0,75.9,0,114.1
		C200.1,319.5,184.3,319.5,168.2,319.5z"/>
	<path class="st1" d="M71.8,319.7c-15.9,0-31.6,0-47.5,0c0-26.4,0-52.8,0-79.5c15.8,0,31.6,0,47.5,0
		C71.8,266.6,71.8,292.9,71.8,319.7z"/>
</g>
</svg>
