<?xml version="1.0" encoding="utf-8"?>
<!-- Generator: Adobe Illustrator 19.2.0, SVG Export Plug-In . SVG Version: 6.00 Build 0)  -->
<svg version="1.1" id="Layer_1" xmlns="http://www.w3.org/2000/svg" xmlns:xlink="http://www.w3.org/1999/xlink" x="0px" y="0px"
	 viewBox="0 0 511.8 478" style="enable-background:new 0 0 511.8 478;" xml:space="preserve">
<g fill="#b0b0b0" transform="translate(0.000000,512.000000) scale(0.100000,-0.100000)">
	<path d="M78,5099c-23-12-46-35-58-59c-20-39-20-55-20-2030C0,833-3,948,57,806c75-179,230-334,408-409c142-60,38-57,2095-57
		c2033,0,1947-2,2084,51c172,68,333,223,412,398c63,139,58,19,61,1668c3,1495,3,1503-17,1543c-13,26-34,47-60,60
		c-38,19-58,20-625,20h-585v460c0,442-1,462-20,500c-13,26-34,47-60,60c-39,20-54,20-1837,20C143,5119,114,5119,78,5099z M3533,2888
		c2-1743,4-1938,19-1983c28-89,57-155,93-211l35-54H2195c-1068,0-1499,3-1537,11c-172,37-310,175-347,347c-8,38-11,570-11,1937v1885
		h1615h1615L3533,2888z M4820,2415c0-961-3-1380-11-1417c-16-77-74-180-129-232c-56-53-144-99-218-115c-68-14-206-14-274,0
		c-172,37-310,175-347,347c-8,38-11,438-11,1417v1365h495h495V2415z"/>
	<path d="M728,4379c-43-22-78-81-78-129c0-50,35-107,80-130c39-20,56-20,1190-20s1151,0,1190,20c45,23,80,80,80,130s-35,107-80,130
		c-39,20-56,20-1192,20C790,4399,764,4399,728,4379z"/>
	<path d="M728,3739c-43-22-78-81-78-129c0-50,35-107,80-130c39-20,56-20,1190-20s1151,0,1190,20c45,23,80,80,80,130s-35,107-80,130
		c-39,20-56,20-1192,20C790,3759,764,3759,728,3739z"/>
	<path d="M1848,3099c-23-12-46-35-58-59c-19-38-20-58-20-630s1-592,20-630c13-26,34-47,60-60c38-19,58-20,630-20s592,1,630,20
		c26,13,47,34,60,60c19,38,20,58,20,630s-1,592-20,630c-13,26-34,47-60,60c-38,19-57,20-632,20C1907,3119,1884,3118,1848,3099z
		 M2890,2410v-410h-410h-410v410v410h410h410V2410z"/>
	<path d="M728,2859c-43-22-78-81-78-129c0-50,35-107,80-130c36-19,58-20,310-20s274,1,310,20c45,23,80,80,80,130s-35,107-80,130
		c-37,19-58,20-312,20C786,2879,762,2878,728,2859z"/>
	<path d="M728,2219c-43-22-78-81-78-129c0-50,35-107,80-130c36-19,58-20,310-20s274,1,310,20c45,23,80,80,80,130s-35,107-80,130
		c-37,19-58,20-312,20C786,2239,762,2238,728,2219z"/>
	<path d="M728,1339c-43-22-78-81-78-129c0-50,35-107,80-130c39-20,56-20,1190-20s1151,0,1190,20c45,23,80,80,80,130s-35,107-80,130
		c-39,20-56,20-1192,20C790,1359,764,1359,728,1339z"/>
</g>
</svg>
