<?xml version="1.0" encoding="iso-8859-1"?>
<!-- Uploaded to: SVG Repo, www.svgrepo.com, Generator: SVG Repo Mixer Tools -->
<svg fill="#30906a" version="1.1" id="Layer_1" xmlns="http://www.w3.org/2000/svg" xmlns:xlink="http://www.w3.org/1999/xlink" 
	 viewBox="0 0 512 512" xml:space="preserve">
<g>
	<g>
		<path d="M215.415,337.171c-10.329,0-18.732,8.403-18.732,18.732c0,10.329,8.403,18.732,18.732,18.732
			c10.329,0,18.732-8.403,18.732-18.732C234.146,345.574,225.743,337.171,215.415,337.171z"/>
	</g>
</g>
<g>
	<g>
		<rect x="440.195" y="199.805" width="37.463" height="37.463"/>
	</g>
</g>
<g>
	<g>
		
			<rect x="422.357" y="136.602" transform="matrix(0.7071 -0.7071 0.7071 0.7071 19.3547 357.393)" width="37.463" height="37.463"/>
	</g>
</g>
<g>
	<g>
		
			<rect x="422.359" y="263.005" transform="matrix(0.7071 -0.7071 0.7071 0.7071 -70.0253 394.4174)" width="37.463" height="37.463"/>
	</g>
</g>
<g>
	<g>
		<path d="M109.268,237.268V143.61c0-58.529,47.617-106.146,106.146-106.146c58.529,0,106.146,47.617,106.146,106.146v56.195h37.463
			V143.61C359.024,64.423,294.601,0,215.415,0S71.805,64.423,71.805,143.61v93.659H34.342V512h362.146V237.268H109.268z
			 M234.146,408.876v34.441h-37.463v-34.441c-21.802-7.731-37.463-28.553-37.463-52.973c0-30.986,25.209-56.195,56.195-56.195
			c30.986,0,56.195,25.209,56.195,56.195C271.61,380.322,255.949,401.145,234.146,408.876z"/>
	</g>
</g>
</svg>