<?xml version="1.0" encoding="utf-8"?>
<!-- Generator: Adobe Illustrator 19.2.0, SVG Export Plug-In . SVG Version: 6.00 Build 0)  -->
<svg version="1.1" id="Layer_1" xmlns="http://www.w3.org/2000/svg" xmlns:xlink="http://www.w3.org/1999/xlink" x="0px" y="0px"
	 viewBox="0 0 400 311" style="enable-background:new 0 0 400 311;" xml:space="preserve">
<g fill="#ffffff">
	<path d="M400,66.5c0,73.2,0,146.4,0,219.5c-1,2.8-1.7,5.7-3,8.4c-5.9,11.7-15.7,16.7-28.5,16.7c-96.3,0-192.6,0-288.9,0
		c-16.3,0-32.5,0-48.8,0c-8.4,0-15.8-2.5-22-8.4C4,298.1,1.8,292.2,0,286c0-73.2,0-146.4,0-219.5c0.4-1.2,0.9-2.4,1.2-3.6
		c3.2-10.6,10.2-17.4,20.8-20.2c3.8-1,7.9-1,12.2-1.5c0-2.4-0.1-4.7,0-7c0.2-7.1,4.6-11.9,11.7-12c14.2-0.2,28.4-0.2,42.6,0
		c6.9,0.1,11.3,4.8,11.6,11.7c0.1,2.4,0,4.9,0,7.6c1.7,0.1,3,0.2,4.2,0.2c9,0,18-0.1,27,0.1c2.6,0,4.2-0.7,5.6-3.1
		c6-10.4,12.3-20.5,18.3-30.9c3-5.3,7.2-7.7,13.4-7.6c21,0.2,41.9,0.2,62.9,0c6.2,0,10.3,2.4,13.3,7.7c5.8,10,11.9,19.9,17.7,29.9
		c1.7,2.9,3.5,4.1,7,4.1c32.9-0.2,65.9-0.1,98.8-0.1c8.6,0,16.4,2.2,22.8,8.3C395.9,54.5,398.1,60.4,400,66.5z M199.8,93.4
		c-46.2,0.4-83.2,37.8-82.7,83.5c0.5,45.8,37.7,82.7,83.1,82.5c45.9-0.2,83.2-37.9,82.7-83.6C282.4,130,245.1,93,199.8,93.4z
		 M334.5,101.7c6,0,12,0.1,18,0c6.7-0.1,11.5-4.8,11.7-11.1c0.2-6.4-4.3-11.6-11-11.8c-12.5-0.3-25-0.3-37.5,0
		c-6.6,0.2-11.2,5.6-11,11.8c0.3,6.3,5.2,11,11.8,11.1C322.5,101.8,328.5,101.7,334.5,101.7z"/>
	<path d="M200.6,118.4c33.5,0.9,58.2,27.1,57.2,60.8c-0.9,30.6-28.2,56.2-59,55.2c-32.8-1.1-57.6-27.4-56.7-60.2
		C143,143.1,169.8,117.5,200.6,118.4z"/>
</g>
</svg>
