<?xml version="1.0" standalone="no"?>
<!DOCTYPE svg PUBLIC "-//W3C//DTD SVG 20010904//EN"
 "http://www.w3.org/TR/2001/REC-SVG-20010904/DTD/svg10.dtd">
<svg version="1.0" xmlns="http://www.w3.org/2000/svg"
 width="512.000000pt" height="512.000000pt" viewBox="0 0 512.000000 512.000000"
 preserveAspectRatio="xMidYMid meet">

<g transform="translate(0.000000,512.000000) scale(0.100000,-0.100000)"
fill="#30906a" stroke="none">
<path d="M29 5091 l-29 -29 0 -2502 0 -2502 29 -29 29 -29 2502 0 2502 0 29
29 29 29 0 2502 0 2502 -29 29 -29 29 -2502 0 -2502 0 -29 -29z m4921 -2531
l0 -2390 -2390 0 -2390 0 0 2390 0 2390 2390 0 2390 0 0 -2390z"/>
<path d="M475 4768 c-46 -25 -45 3 -45 -842 1 -614 3 -805 13 -817 30 -39 30
-39 922 -39 919 0 911 0 929 45 8 22 8 1598 0 1620 -18 45 -10 45 -931 45
-609 -1 -874 -4 -888 -12z m1655 -843 l0 -685 -84 0 -85 0 -3 203 c-3 199 -3
203 -32 265 -29 63 -122 163 -164 176 -18 6 -17 10 6 79 34 101 28 216 -16
311 -140 298 -555 333 -738 62 -74 -110 -94 -254 -50 -377 l23 -67 -37 -21
c-53 -30 -117 -103 -148 -169 -26 -55 -27 -65 -30 -259 l-3 -203 -85 0 -84 0
0 685 0 685 765 0 765 0 0 -685z m-649 397 c157 -82 186 -291 58 -408 -78 -71
-169 -135 -181 -128 -40 24 -169 127 -191 153 -108 129 -50 339 109 396 66 24
144 19 205 -13z m-313 -609 c26 -20 51 -41 56 -45 6 -4 -17 -36 -52 -72 -44
-45 -62 -72 -62 -90 0 -15 25 -76 55 -136 30 -60 55 -114 55 -120 0 -6 -52
-10 -140 -10 l-140 0 0 178 c0 222 15 263 115 315 45 24 62 21 113 -20z m510
18 c47 -24 77 -56 97 -103 11 -29 15 -77 15 -213 l0 -175 -140 0 c-88 0 -140
4 -140 10 0 6 25 60 55 120 30 60 55 121 55 136 0 18 -18 45 -62 91 l-63 65
30 21 c16 12 41 32 55 44 31 28 50 28 98 4z m-280 -315 l-33 -66 -33 66 -34
66 33 34 33 34 34 -33 33 -34 -33 -67z"/>
<path d="M2865 4768 c-46 -25 -45 2 -45 -839 0 -439 3 -805 6 -814 18 -45 10
-45 929 -45 892 0 892 0 922 39 10 12 12 202 13 813 0 438 -3 804 -6 813 -18
45 -10 45 -931 45 -609 -1 -874 -4 -888 -12z m1655 -843 l0 -685 -84 0 -85 0
-3 203 c-3 195 -4 204 -30 259 -30 65 -101 146 -151 172 l-33 18 23 67 c71
207 -25 429 -226 525 -62 29 -73 31 -176 31 -103 0 -114 -2 -178 -32 -199 -95
-294 -318 -224 -525 22 -65 23 -68 5 -74 -37 -11 -134 -113 -163 -171 -30 -58
-30 -58 -33 -265 l-3 -208 -85 0 -84 0 0 685 0 685 765 0 765 0 0 -685z m-652
399 c158 -79 189 -291 60 -410 -41 -38 -166 -134 -173 -134 -14 0 -177 134
-204 167 -59 72 -66 193 -16 278 67 115 213 159 333 99z m-309 -614 c30 -21
56 -42 59 -45 3 -3 -22 -34 -56 -69 -44 -45 -62 -72 -62 -90 0 -15 25 -76 55
-136 30 -60 55 -114 55 -120 0 -6 -52 -10 -140 -10 l-140 0 0 178 c0 222 15
263 115 315 44 24 56 21 114 -23z m509 21 c47 -24 77 -56 97 -103 11 -29 15
-77 15 -213 l0 -175 -140 0 c-88 0 -140 4 -140 10 0 6 25 60 55 120 30 60 55
121 55 136 0 18 -18 45 -62 90 -34 35 -59 66 -57 68 35 34 108 85 122 86 10 0
34 -9 55 -19z m-280 -315 l-33 -66 -33 66 -34 66 33 34 33 34 34 -33 33 -34
-33 -67z"/>
<path d="M600 2815 l0 -85 85 0 85 0 0 85 0 85 -85 0 -85 0 0 -85z"/>
<path d="M940 2815 l0 -85 595 0 595 0 0 85 0 85 -595 0 -595 0 0 -85z"/>
<path d="M3070 2815 l0 -85 85 0 85 0 0 85 0 85 -85 0 -85 0 0 -85z"/>
<path d="M3410 2815 l0 -85 555 0 555 0 0 85 0 85 -555 0 -555 0 0 -85z"/>
<path d="M452 2447 l-22 -23 0 -803 0 -802 25 -24 24 -25 886 0 886 0 24 25
25 24 0 804 0 804 -23 21 -23 22 -890 0 -891 0 -21 -23z m1678 -827 l0 -680
-84 0 -85 0 -3 202 c-3 194 -4 205 -29 258 -32 69 -77 121 -139 161 l-48 31
20 46 c13 28 22 77 26 127 25 401 -460 609 -732 314 -111 -119 -144 -270 -93
-421 l23 -67 -48 -31 c-57 -37 -109 -99 -140 -166 -21 -45 -23 -66 -26 -252
l-3 -202 -85 0 -84 0 0 680 0 680 765 0 765 0 0 -680z m-651 401 c88 -45 147
-149 139 -245 -8 -92 -41 -141 -153 -227 l-100 -76 -95 73 c-104 80 -123 103
-145 165 -49 137 36 293 180 330 44 12 131 1 174 -20z m-310 -613 c31 -22 58
-43 60 -45 3 -2 -18 -27 -46 -56 -56 -57 -73 -85 -73 -117 0 -11 25 -70 55
-130 30 -60 55 -112 55 -115 0 -3 -63 -5 -140 -5 l-140 0 0 177 c0 159 2 181
21 220 26 54 87 100 148 112 2 1 29 -18 60 -41z m521 13 c19 -10 49 -37 65
-60 l30 -43 3 -189 3 -189 -140 0 c-78 0 -141 2 -141 5 0 3 25 55 55 115 30
60 55 123 55 139 0 23 -15 46 -61 95 l-60 65 58 45 c61 49 67 49 133 17z
m-285 -211 l29 -30 -29 -61 c-16 -33 -33 -63 -37 -65 -4 -3 -21 23 -38 57
l-32 61 33 34 c18 19 36 34 39 34 3 0 19 -13 35 -30z"/>
<path d="M2842 2447 l-22 -23 0 -803 0 -802 25 -24 24 -25 886 0 886 0 24 25
25 24 0 804 0 804 -23 21 -23 22 -890 0 -891 0 -21 -23z m1678 -827 l0 -680
-84 0 -85 0 -3 202 c-3 186 -5 207 -26 252 -31 67 -83 129 -140 166 l-48 31
23 67 c68 199 -21 418 -207 512 -242 122 -530 -4 -605 -265 -22 -76 -16 -202
13 -267 l20 -46 -48 -31 c-62 -40 -107 -92 -139 -161 -25 -53 -26 -64 -29
-258 l-3 -202 -85 0 -84 0 0 680 0 680 765 0 765 0 0 -680z m-652 401 c111
-57 167 -192 128 -307 -22 -64 -53 -100 -156 -177 l-85 -64 -98 75 c-112 86
-145 132 -154 216 -8 75 11 137 59 191 63 72 125 97 216 89 30 -2 70 -13 90
-23z m-305 -617 l58 -45 -60 -65 c-46 -49 -61 -72 -61 -95 0 -16 25 -79 55
-139 30 -60 55 -112 55 -115 0 -3 -63 -5 -140 -5 l-140 0 0 177 c0 159 2 181
21 220 26 54 91 103 149 112 3 1 31 -20 63 -45z m517 17 c19 -10 49 -37 65
-60 l30 -43 3 -189 3 -189 -140 0 c-78 0 -141 2 -141 5 0 3 25 55 55 115 30
60 55 119 55 130 0 32 -17 60 -73 118 -49 50 -51 53 -32 66 11 8 38 28 60 45
43 32 53 32 115 2z m-291 -215 l33 -34 -32 -61 c-17 -34 -34 -60 -38 -57 -4 2
-21 32 -37 65 l-29 61 29 30 c16 17 32 30 35 30 3 0 21 -15 39 -34z"/>
<path d="M600 515 l0 -85 85 0 85 0 0 85 0 85 -85 0 -85 0 0 -85z"/>
<path d="M940 515 l0 -85 595 0 595 0 0 85 0 85 -595 0 -595 0 0 -85z"/>
<path d="M3070 515 l0 -85 85 0 85 0 0 85 0 85 -85 0 -85 0 0 -85z"/>
<path d="M3417 593 c-4 -3 -7 -42 -7 -85 l0 -78 555 0 555 0 0 85 0 85 -548 0
c-302 0 -552 -3 -555 -7z"/>
</g>
</svg>
