<svg version="1.1" xmlns="http://www.w3.org/2000/svg" xmlns:xlink="http://www.w3.org/1999/xlink" x="0px" y="0px" viewBox="0 0 512 512">
	<g>
		<path d="M512,492.6c0,5.3-1.7,9.9-5.1,13.7c-3.4,3.8-7.8,5.7-13.1,5.7h-54.9c-5.3,0-9.7-1.7-13.1-5.1c-3.4-3.4-5.1-7.4-5.1-12
			C416,385.1,375,291.6,297.7,214.3C220.4,137,126.9,96,17.1,91.4c-4.6,0-8.6-1.7-12-5.1C1.7,82.9,0,78.5,0,73.1V18.3
			C0,13,1.9,8.6,5.7,5.1C9.5,1.7,14.1,0,19.4,0C107,3.1,188.2,26.9,262.9,71.4c74.7,44.6,134.1,104,178.3,178.3
			C485.3,324,508.9,405,512,492.6z M347.4,492.6c0,5.3-1.7,9.9-5.1,13.7c-3.4,3.8-7.8,5.7-13.1,5.7h-54.9c-5.3,0-9.7-1.7-13.1-5.1
			c-3.4-3.4-5.1-7.4-5.1-12c-4.6-64-29.5-118.7-74.9-164c-45.3-45.3-100-70.3-164-74.9c-4.6,0-8.6-1.7-12-5.1
			c-3.4-3.4-5.1-7.8-5.1-13.1v-54.9c0-5.3,1.9-9.7,5.7-13.1c3.8-3.4,8.4-5.1,13.7-5.1c88.4,5.3,163.8,39.3,226.3,101.7
			C308.2,328.8,342.1,404.2,347.4,492.6z M125.1,386.9c14.1,14.1,21.1,31.3,21.1,51.4c0,20.2-7.1,37.5-21.1,52
			C111,504.8,93.9,512,73.7,512c-20.2,0-37.5-7.2-52-21.7C7.2,475.8,0,458.5,0,438.3c0-20.2,7.2-37.3,21.7-51.4
			c14.5-14.1,31.8-21.1,52-21.1C93.9,365.7,111,372.8,125.1,386.9z"/>
	</g>
</svg>
